<?xml version="1.0" encoding="UTF-8"?>
<svg id="Laag_1" data-name="Laag 1" xmlns="http://www.w3.org/2000/svg" viewBox="0 0 204 233">
  <defs>
    <style>
      .cls-1 {
        fill: #fff;
      }
    </style>
  </defs>
  <g id="ln27ah">
    <g>
      <path d="m57.18,167.09c-5.62,4.64-11.06,9.08-16.45,13.57-9.59,7.99-19.35,15.79-28.67,24.09-5.12,4.56-4.33,11.8,1,16.12,5.11,4.14,11.17,3.15,16.14-2.79,9.99-11.95,19.77-24.08,29.91-35.9,7.14-8.32,7.34-8.15-1.93-15.09Z"/>
      <path d="m133.96,101.69c6.13-2.86,12.28-5.69,18.43-8.51,1.41-.64,3.24-.33,5.86-.55,11.46-26.06,23.15-52.68,34.85-79.29l-1.67-.8c-.94,1.57-1.9,3.12-2.8,4.71-11.4,20.12-22.65,40.32-34.32,60.27-1.83,3.13-5.2,5.87-8.49,7.55-6.33,3.24-12.76,6.27-19.22,9.24l7.37,7.37Z"/>
      <path d="m101.91,111.64c-.06.43-.11.85-.18,1.28-.4,2.35-1.57,4.58-1.86,6.94-1.61,13.19-8.55,22.95-18.99,30.68-5.46,4.04-10.65,8.45-15.86,12.62,2.19,5.03,4.5,5.87,9.07,2.51,7.3-5.37,15.38-9.67,22.87-14.8,2.17-1.49,4.25-4.01,5.03-6.47,2.65-8.42,4.7-17.03,7.17-25.51l-7.24-7.24Z"/>
      <path class="cls-1" d="m133.96,101.69c6.13-2.86,12.28-5.69,18.43-8.51,1.41-.64,3.24-.33,5.86-.55,11.46-26.06,23.15-52.68,34.85-79.29l-1.67-.8c-.94,1.57-1.9,3.12-2.8,4.71-11.4,20.12-22.65,40.32-34.32,60.27-1.83,3.13-5.2,5.87-8.49,7.55-6.33,3.24-12.76,6.27-19.22,9.24l7.37,7.37Z"/>
      <path class="cls-1" d="m101.91,111.64c-.06.43-.11.85-.18,1.28-.4,2.35-1.57,4.58-1.86,6.94-1.61,13.19-8.55,22.95-18.99,30.68-5.46,4.04-10.65,8.45-15.86,12.62,2.19,5.03,4.5,5.87,9.07,2.51,7.3-5.37,15.38-9.67,22.87-14.8,2.17-1.49,4.25-4.01,5.03-6.47,2.65-8.42,4.7-17.03,7.17-25.51l-7.24-7.24Z"/>
      <path class="cls-1" d="m57.18,167.09c9.27,6.94,9.07,6.77,1.93,15.09-10.14,11.82-19.92,23.95-29.91,35.9-4.97,5.95-11.03,6.93-16.14,2.79-5.33-4.32-6.12-11.56-1-16.12,9.32-8.29,19.08-16.1,28.67-24.09,5.39-4.49,10.83-8.93,16.45-13.57Z"/>
    </g>
  </g>
  <rect class="cls-1" x="108.52" y="-8.15" width="12.73" height="225.76" rx="6.36" ry="6.36" transform="translate(270.19 97.55) rotate(135)"/>
  <path class="cls-1" d="m120.36,105.92c1.93,0,1.93-3,0-3s-1.93,3,0,3h0Z"/>
</svg>