<?xml version="1.0" encoding="utf-8"?>
<!-- Generator: Adobe Illustrator 27.2.0, SVG Export Plug-In . SVG Version: 6.00 Build 0)  -->
<svg version="1.1" id="Laag_1" xmlns="http://www.w3.org/2000/svg" xmlns:xlink="http://www.w3.org/1999/xlink" x="0px" y="0px"
	 viewBox="0 0 1318.4 1332.4" style="enable-background:new 0 0 1318.4 1332.4;" xml:space="preserve">
<style type="text/css">
	.st0{enable-background:new    ;}
	.st1{fill:#774CBC;}
	.st2{fill:none;stroke:#FFFFFF;stroke-width:5;}
	.st3{fill:none;stroke:#FFFFFF;stroke-width:3.0016;stroke-miterlimit:4.0021;}
	.st4{fill:#C4B8DD;}
	.st5{fill:#FFFFFF;}
	.st6{fill:#9371C9;}
	.st7{fill:none;stroke:#FFFFFF;stroke-width:2;}
	.st8{fill:#714EB6;}
	.st9{fill:#F2EBFF;}
	.st10{fill:#BBB7BF;}
</style>
<circle class="st9" cx="649.1" cy="666.2" r="631.2"/>
<g id="PsdnG8.tif">
	<g>
		<path class="st10" d="M368.8,598.9c-0.4,20.6,2.4,45.9,8.5,70.5c19.1,75.9,58.9,138.3,124.9,181.6c71.6,47,149.3,57,230.3,29.9
			c68.6-23,119.3-68.9,154.4-131.6c33.6-60.2,45.5-125.2,37.4-193.6c-7.6-64.9-32.4-122.4-76.4-171.1
			c-47.6-52.7-106.4-83.9-177.6-90.4c-47.7-4.4-93.2,4-136.2,24.8c-60,29.1-103.7,74.8-133.1,134.1
			C379.1,497.4,368.6,544.5,368.8,598.9z M182,1084.5c245.7,280.7,690.4,279.3,934.2,7c-19.8-17.5-39.3-35.4-59.6-52.4
			c-24.6-20.6-51.9-37.5-80.5-51.9c-20.8-10.5-41.9-20.8-63.6-29.1c-26.3-10-53.2-19.1-80.4-26c-27.1-6.9-55-10.9-82.7-15.6
			c-13.7-2.3-27.5-3.6-41.3-4.9c-12.6-1.2-25.3-2.4-38-2.4c-24.9-0.1-49.9-0.1-74.8,1.4c-21.5,1.3-42.9,4.3-64.2,7.4
			c-17.7,2.6-35.4,5.8-53,9.6c-36.5,8-72.3,18.4-106.6,33.4c-25.3,11.1-50.7,22.5-74.6,36.3c-22.6,13-44,28.4-64.9,44.3
			C214.7,1054.6,198.9,1069.8,182,1084.5z"/>
		<path class="st10" d="M368.8,598.9c-0.1-54.4,10.3-101.5,32.2-145.8c29.4-59.4,73.1-105.1,133.1-134.1
			c43-20.8,88.5-29.2,136.2-24.8c71.3,6.5,130,37.7,177.6,90.4c43.9,48.7,68.7,106.2,76.4,171.1c8.1,68.4-3.8,133.4-37.4,193.6
			c-35,62.8-85.8,108.7-154.4,131.6C651.5,908.1,573.8,898,502.2,851c-66-43.3-105.8-105.7-124.9-181.6
			C371.2,644.8,368.4,619.5,368.8,598.9z"/>
		<path class="st10" d="M182,1084.5c16.9-14.7,32.6-29.9,50-43.1c20.9-15.8,42.2-31.3,64.9-44.3c23.9-13.7,49.3-25.2,74.6-36.3
			c34.2-15,70.1-25.3,106.6-33.4c17.5-3.9,35.2-7.1,53-9.6c21.3-3.1,42.7-6.1,64.2-7.4c24.9-1.5,49.9-1.4,74.8-1.4
			c12.7,0,25.4,1.2,38,2.4c13.8,1.3,27.7,2.6,41.3,4.9c27.7,4.7,55.5,8.7,82.7,15.6c27.3,6.9,54.1,16,80.4,26
			c21.8,8.3,42.8,18.6,63.6,29.1c28.7,14.4,55.9,31.3,80.5,51.9c20.3,16.9,39.7,34.9,59.6,52.4
			C872.5,1363.8,427.7,1365.1,182,1084.5z"/>
	</g>
</g>
</svg>
