<?xml version="1.0" encoding="utf-8"?>
<!-- Generator: Adobe Illustrator 27.2.0, SVG Export Plug-In . SVG Version: 6.00 Build 0)  -->
<svg version="1.1" id="Laag_1" xmlns="http://www.w3.org/2000/svg" xmlns:xlink="http://www.w3.org/1999/xlink" x="0px" y="0px"
	 viewBox="0 0 1496.8 1418.4" style="enable-background:new 0 0 1496.8 1418.4;" xml:space="preserve">
<style type="text/css">
	.st0{enable-background:new    ;}
	.st1{fill:#774CBC;}
	.st2{fill:none;stroke:#FFFFFF;stroke-width:5;}
	.st3{fill:none;stroke:#FFFFFF;stroke-width:3.0016;stroke-miterlimit:4.0021;}
	.st4{fill:#C4B8DD;}
	.st5{fill:#FFFFFF;}
	.st6{fill:#9371C9;}
	.st7{fill:none;stroke:#FFFFFF;stroke-width:2;}
	.st8{fill:#714EB6;}
	.st9{fill:#F2EBFF;}
	.st10{fill:#BBB7BF;}
	.st11{clip-path:url(#SVGID_00000085943765911331833280000017013068833109025215_);}
</style>
<g class="st0">
	<path class="st1" d="M626,3582.6v-24.6h108.8v24.6h-39.8v108.3h-29.2v-108.3H626z"/>
	<path class="st1" d="M847.8,3680.8c-10,8.7-23.9,13.1-41.7,13.1c-18,0-31.9-4.3-41.8-13c-9.9-8.7-14.8-22.1-14.8-40.2v-82.6h29.2
		v82.6c0,3.6,0.3,7.1,0.9,10.6c0.6,3.5,1.9,6.5,3.9,9.2c2,2.7,4.7,4.8,8.3,6.5c3.5,1.7,8.3,2.5,14.2,2.5c10.4,0,17.6-2.3,21.6-7
		c4-4.6,6-11.9,6-21.9v-82.6h29.2v82.6C862.8,3658.6,857.8,3672,847.8,3680.8z"/>
	<path class="st1" d="M945.2,3558.1c8.6,0,16.5,1.4,23.9,4.1c7.4,2.7,13.8,6.8,19.2,12.3c5.4,5.5,9.6,12.3,12.6,20.5
		c3,8.2,4.6,17.8,4.6,28.8c0,9.7-1.2,18.6-3.7,26.8c-2.5,8.2-6.2,15.3-11.3,21.2s-11.3,10.6-18.8,14c-7.5,3.4-16.3,5.1-26.5,5.1
		h-57.3v-132.8H945.2z M943.2,3666.3c4.2,0,8.3-0.7,12.3-2c4-1.4,7.5-3.6,10.6-6.8c3.1-3.2,5.6-7.3,7.4-12.4
		c1.9-5.1,2.8-11.3,2.8-18.6c0-6.7-0.7-12.7-2-18.1c-1.3-5.4-3.4-10-6.4-13.9c-3-3.8-6.9-6.8-11.8-8.8c-4.9-2-10.9-3.1-18.1-3.1
		h-20.8v83.7H943.2z"/>
</g>
<g class="st0">
	<path class="st1" d="M555.8,3681.5c2.7,3.7,6,6.5,9.9,8.5c3.9,2,8.2,3.2,13.1,3.6c4.9,0.5,9.8,0.3,14.8-0.5c3.4-0.5,7-1.4,10.8-2.6
		c3.8-1.2,7.2-2.8,10.4-5c3.1-2.1,5.6-4.8,7.4-8c1.8-3.2,2.4-6.9,1.7-11.3c-0.7-4.7-2.8-8.2-6.3-10.7c-3.4-2.4-7.7-4.2-12.9-5.4
		c-5.1-1.2-10.9-2-17.3-2.5c-6.4-0.5-12.8-1.1-19.4-1.9c-6.7-0.6-13.3-1.6-19.8-2.9c-6.5-1.4-12.5-3.5-17.9-6.5
		c-5.4-2.9-10.1-7-13.9-12.1c-3.9-5.1-6.4-11.6-7.7-19.5c-1.4-8.9-0.7-16.9,2-24c2.8-7.1,6.9-13.4,12.3-18.7
		c5.4-5.3,11.9-9.6,19.3-13c7.4-3.3,15-5.6,22.7-6.8c9-1.4,17.9-1.8,26.5-1.1c8.6,0.7,16.5,2.8,23.7,6.3c7.2,3.5,13.2,8.5,18.1,14.9
		c4.9,6.4,8.1,14.6,9.7,24.6l-36.8,5.8c-1.1-5.1-2.9-9.2-5.3-12.3c-2.4-3.1-5.3-5.4-8.6-6.8c-3.4-1.5-7.1-2.3-11.2-2.4
		c-4.1-0.2-8.5,0.1-13.1,0.8c-3.1,0.5-6.1,1.3-9,2.4c-3,1.1-5.6,2.7-7.8,4.7c-2.2,2-4,4.4-5.2,7c-1.2,2.7-1.6,5.9-1,9.6
		c0.5,3.4,1.6,6,3.2,7.9c1.6,1.9,4.5,3.4,8.5,4.6c4.1,1.2,9.6,2.1,16.6,2.8c7,0.7,16.1,1.6,27.3,2.6c3.3,0.1,8,0.6,14,1.4
		c6,0.8,12.1,2.6,18.3,5.4c6.2,2.8,11.9,7,17,12.6c5.1,5.6,8.4,13.2,9.9,22.9c1.3,7.9,0.9,15.5-1.1,22.7c-2,7.3-5.6,13.8-10.9,19.7
		c-5.3,5.9-12.2,10.9-20.7,15.1c-8.5,4.2-18.7,7.2-30.4,9c-9.5,1.5-18.9,1.8-28.3,0.9c-9.3-0.9-17.8-3.3-25.5-7.3
		c-7.6-3.9-14.1-9.4-19.4-16.5c-5.3-7.1-8.7-16-10.2-26.7l36.8-5.8C551.2,3673,553,3677.8,555.8,3681.5z"/>
</g>
<g class="st0">
	<path class="st2" d="M555.8,3681.5c2.7,3.7,6,6.5,9.9,8.5c3.9,2,8.2,3.2,13.1,3.6c4.9,0.5,9.8,0.3,14.8-0.5c3.4-0.5,7-1.4,10.8-2.6
		c3.8-1.2,7.2-2.8,10.4-5c3.1-2.1,5.6-4.8,7.4-8c1.8-3.2,2.4-6.9,1.7-11.3c-0.7-4.7-2.8-8.2-6.3-10.7c-3.4-2.4-7.7-4.2-12.9-5.4
		c-5.1-1.2-10.9-2-17.3-2.5c-6.4-0.5-12.8-1.1-19.4-1.9c-6.7-0.6-13.3-1.6-19.8-2.9c-6.5-1.4-12.5-3.5-17.9-6.5
		c-5.4-2.9-10.1-7-13.9-12.1c-3.9-5.1-6.4-11.6-7.7-19.5c-1.4-8.9-0.7-16.9,2-24c2.8-7.1,6.9-13.4,12.3-18.7
		c5.4-5.3,11.9-9.6,19.3-13c7.4-3.3,15-5.6,22.7-6.8c9-1.4,17.9-1.8,26.5-1.1c8.6,0.7,16.5,2.8,23.7,6.3c7.2,3.5,13.2,8.5,18.1,14.9
		c4.9,6.4,8.1,14.6,9.7,24.6l-36.8,5.8c-1.1-5.1-2.9-9.2-5.3-12.3c-2.4-3.1-5.3-5.4-8.6-6.8c-3.4-1.5-7.1-2.3-11.2-2.4
		c-4.1-0.2-8.5,0.1-13.1,0.8c-3.1,0.5-6.1,1.3-9,2.4c-3,1.1-5.6,2.7-7.8,4.7c-2.2,2-4,4.4-5.2,7c-1.2,2.7-1.6,5.9-1,9.6
		c0.5,3.4,1.6,6,3.2,7.9c1.6,1.9,4.5,3.4,8.5,4.6c4.1,1.2,9.6,2.1,16.6,2.8c7,0.7,16.1,1.6,27.3,2.6c3.3,0.1,8,0.6,14,1.4
		c6,0.8,12.1,2.6,18.3,5.4c6.2,2.8,11.9,7,17,12.6c5.1,5.6,8.4,13.2,9.9,22.9c1.3,7.9,0.9,15.5-1.1,22.7c-2,7.3-5.6,13.8-10.9,19.7
		c-5.3,5.9-12.2,10.9-20.7,15.1c-8.5,4.2-18.7,7.2-30.4,9c-9.5,1.5-18.9,1.8-28.3,0.9c-9.3-0.9-17.8-3.3-25.5-7.3
		c-7.6-3.9-14.1-9.4-19.4-16.5c-5.3-7.1-8.7-16-10.2-26.7l36.8-5.8C551.2,3673,553,3677.8,555.8,3681.5z"/>
</g>
<g class="st0">
	<path class="st1" d="M1029.1,3605.5l-37.2-3.9c1-10.8,3.9-19.9,8.8-27.3c4.9-7.4,11.1-13.3,18.6-17.6c7.5-4.3,15.9-7.2,25.2-8.6
		c9.3-1.4,18.8-1.6,28.4-0.6c11.9,1.3,22.2,3.8,31,7.5c8.8,3.7,15.9,8.4,21.5,14c5.6,5.6,9.6,12,12,19.2c2.4,7.2,3.1,14.8,2.3,22.8
		c-1,9.8-4,17.6-8.8,23.5c-4.8,5.8-10.3,10.3-16.4,13.5c-6.1,3.1-12.2,5.3-18.1,6.4c-6,1.1-10.6,1.8-14,2.1
		c-11.2,1.6-20.3,3-27.3,4.1c-7,1.1-12.5,2.3-16.5,3.7c-4,1.4-6.8,3.1-8.3,5.1c-1.5,2-2.5,4.7-2.8,8.1c-0.4,3.8,0.1,6.9,1.5,9.6
		c1.4,2.6,3.2,4.9,5.6,6.8c2.4,1.9,5,3.3,8.1,4.3c3,1,6.1,1.6,9.2,2c4.7,0.5,9.1,0.5,13.2,0.2c4.1-0.4,7.8-1.4,11.1-3
		c3.3-1.6,6.1-4.1,8.3-7.3c2.2-3.2,3.8-7.4,4.7-12.6l37.2,3.9c-1.1,10.1-3.9,18.5-8.5,25.2c-4.6,6.7-10.4,12-17.4,15.9
		c-7,3.9-14.8,6.4-23.4,7.5c-8.6,1.2-17.5,1.2-26.6,0.3c-7.8-0.8-15.6-2.7-23.2-5.7c-7.6-2.9-14.3-7-20-12
		c-5.7-5.1-10.2-11.1-13.3-18.1c-3.1-7-4.2-15-3.3-24c0.8-8,3.1-14.6,6.7-20c3.6-5.3,8.1-9.6,13.4-12.8c5.3-3.2,11.2-5.7,17.6-7.4
		c6.4-1.7,13-3,19.7-4c6.6-1.1,13-2.1,19.4-2.9c6.4-0.8,12.1-1.9,17.2-3.4c5.1-1.4,9.3-3.5,12.6-6.1c3.3-2.6,5.2-6.3,5.7-11
		c0.5-4.4-0.3-8.2-2.3-11.3c-2-3.1-4.6-5.6-7.9-7.6c-3.3-2-6.8-3.5-10.7-4.5c-3.9-1-7.5-1.7-10.9-2c-5.1-0.5-10-0.4-14.9,0.3
		c-4.9,0.7-9.2,2.2-13,4.3c-3.8,2.2-6.9,5.2-9.5,9C1031.3,3594.7,1029.8,3599.6,1029.1,3605.5z"/>
</g>
<g class="st0">
	<path class="st3" d="M1029.1,3605.5l-37.2-3.9c1-10.8,3.9-19.9,8.8-27.3c4.9-7.4,11.1-13.3,18.6-17.6c7.5-4.3,15.9-7.2,25.2-8.6
		c9.3-1.4,18.8-1.6,28.4-0.6c11.9,1.3,22.2,3.8,31,7.5c8.8,3.7,15.9,8.4,21.5,14c5.6,5.6,9.6,12,12,19.2c2.4,7.2,3.1,14.8,2.3,22.8
		c-1,9.8-4,17.6-8.8,23.5c-4.8,5.8-10.3,10.3-16.4,13.5c-6.1,3.1-12.2,5.3-18.1,6.4c-6,1.1-10.6,1.8-14,2.1
		c-11.2,1.6-20.3,3-27.3,4.1c-7,1.1-12.5,2.3-16.5,3.7c-4,1.4-6.8,3.1-8.3,5.1c-1.5,2-2.5,4.7-2.8,8.1c-0.4,3.8,0.1,6.9,1.5,9.6
		c1.4,2.6,3.2,4.9,5.6,6.8c2.4,1.9,5,3.3,8.1,4.3c3,1,6.1,1.6,9.2,2c4.7,0.5,9.1,0.5,13.2,0.2c4.1-0.4,7.8-1.4,11.1-3
		c3.3-1.6,6.1-4.1,8.3-7.3c2.2-3.2,3.8-7.4,4.7-12.6l37.2,3.9c-1.1,10.1-3.9,18.5-8.5,25.2c-4.6,6.7-10.4,12-17.4,15.9
		c-7,3.9-14.8,6.4-23.4,7.5c-8.6,1.2-17.5,1.2-26.6,0.3c-7.8-0.8-15.6-2.7-23.2-5.7c-7.6-2.9-14.3-7-20-12
		c-5.7-5.1-10.2-11.1-13.3-18.1c-3.1-7-4.2-15-3.3-24c0.8-8,3.1-14.6,6.7-20c3.6-5.3,8.1-9.6,13.4-12.8c5.3-3.2,11.2-5.7,17.6-7.4
		c6.4-1.7,13-3,19.7-4c6.6-1.1,13-2.1,19.4-2.9c6.4-0.8,12.1-1.9,17.2-3.4c5.1-1.4,9.3-3.5,12.6-6.1c3.3-2.6,5.2-6.3,5.7-11
		c0.5-4.4-0.3-8.2-2.3-11.3c-2-3.1-4.6-5.6-7.9-7.6c-3.3-2-6.8-3.5-10.7-4.5c-3.9-1-7.5-1.7-10.9-2c-5.1-0.5-10-0.4-14.9,0.3
		c-4.9,0.7-9.2,2.2-13,4.3c-3.8,2.2-6.9,5.2-9.5,9C1031.3,3594.7,1029.8,3599.6,1029.1,3605.5z"/>
</g>
<g class="st0">
	<path class="st1" d="M626,3582.6v-24.6h108.8v24.6h-39.8v108.3h-29.2v-108.3H626z"/>
	<path class="st1" d="M847.8,3680.8c-10,8.7-23.9,13.1-41.7,13.1c-18,0-31.9-4.3-41.8-13c-9.9-8.7-14.8-22.1-14.8-40.2v-82.6h29.2
		v82.6c0,3.6,0.3,7.1,0.9,10.6c0.6,3.5,1.9,6.5,3.9,9.2c2,2.7,4.7,4.8,8.3,6.5c3.5,1.7,8.3,2.5,14.2,2.5c10.4,0,17.6-2.3,21.6-7
		c4-4.6,6-11.9,6-21.9v-82.6h29.2v82.6C862.8,3658.6,857.8,3672,847.8,3680.8z"/>
	<path class="st1" d="M945.2,3558.1c8.6,0,16.5,1.4,23.9,4.1c7.4,2.7,13.8,6.8,19.2,12.3c5.4,5.5,9.6,12.3,12.6,20.5
		c3,8.2,4.6,17.8,4.6,28.8c0,9.7-1.2,18.6-3.7,26.8c-2.5,8.2-6.2,15.3-11.3,21.2s-11.3,10.6-18.8,14c-7.5,3.4-16.3,5.1-26.5,5.1
		h-57.3v-132.8H945.2z M943.2,3666.3c4.2,0,8.3-0.7,12.3-2c4-1.4,7.5-3.6,10.6-6.8c3.1-3.2,5.6-7.3,7.4-12.4
		c1.9-5.1,2.8-11.3,2.8-18.6c0-6.7-0.7-12.7-2-18.1c-1.3-5.4-3.4-10-6.4-13.9c-3-3.8-6.9-6.8-11.8-8.8c-4.9-2-10.9-3.1-18.1-3.1
		h-20.8v83.7H943.2z"/>
</g>
<g class="st0">
	<path class="st1" d="M555.8,3681.5c2.7,3.7,6,6.5,9.9,8.5c3.9,2,8.2,3.2,13.1,3.6c4.9,0.5,9.8,0.3,14.8-0.5c3.4-0.5,7-1.4,10.8-2.6
		c3.8-1.2,7.2-2.8,10.4-5c3.1-2.1,5.6-4.8,7.4-8c1.8-3.2,2.4-6.9,1.7-11.3c-0.7-4.7-2.8-8.2-6.3-10.7c-3.4-2.4-7.7-4.2-12.9-5.4
		c-5.1-1.2-10.9-2-17.3-2.5c-6.4-0.5-12.8-1.1-19.4-1.9c-6.7-0.6-13.3-1.6-19.8-2.9c-6.5-1.4-12.5-3.5-17.9-6.5
		c-5.4-2.9-10.1-7-13.9-12.1c-3.9-5.1-6.4-11.6-7.7-19.5c-1.4-8.9-0.7-16.9,2-24c2.8-7.1,6.9-13.4,12.3-18.7
		c5.4-5.3,11.9-9.6,19.3-13c7.4-3.3,15-5.6,22.7-6.8c9-1.4,17.9-1.8,26.5-1.1c8.6,0.7,16.5,2.8,23.7,6.3c7.2,3.5,13.2,8.5,18.1,14.9
		c4.9,6.4,8.1,14.6,9.7,24.6l-36.8,5.8c-1.1-5.1-2.9-9.2-5.3-12.3c-2.4-3.1-5.3-5.4-8.6-6.8c-3.4-1.5-7.1-2.3-11.2-2.4
		c-4.1-0.2-8.5,0.1-13.1,0.8c-3.1,0.5-6.1,1.3-9,2.4c-3,1.1-5.6,2.7-7.8,4.7c-2.2,2-4,4.4-5.2,7c-1.2,2.7-1.6,5.9-1,9.6
		c0.5,3.4,1.6,6,3.2,7.9c1.6,1.9,4.5,3.4,8.5,4.6c4.1,1.2,9.6,2.1,16.6,2.8c7,0.7,16.1,1.6,27.3,2.6c3.3,0.1,8,0.6,14,1.4
		c6,0.8,12.1,2.6,18.3,5.4c6.2,2.8,11.9,7,17,12.6c5.1,5.6,8.4,13.2,9.9,22.9c1.3,7.9,0.9,15.5-1.1,22.7c-2,7.3-5.6,13.8-10.9,19.7
		c-5.3,5.9-12.2,10.9-20.7,15.1c-8.5,4.2-18.7,7.2-30.4,9c-9.5,1.5-18.9,1.8-28.3,0.9c-9.3-0.9-17.8-3.3-25.5-7.3
		c-7.6-3.9-14.1-9.4-19.4-16.5c-5.3-7.1-8.7-16-10.2-26.7l36.8-5.8C551.2,3673,553,3677.8,555.8,3681.5z"/>
</g>
<g class="st0">
	<path class="st2" d="M555.8,3681.5c2.7,3.7,6,6.5,9.9,8.5c3.9,2,8.2,3.2,13.1,3.6c4.9,0.5,9.8,0.3,14.8-0.5c3.4-0.5,7-1.4,10.8-2.6
		c3.8-1.2,7.2-2.8,10.4-5c3.1-2.1,5.6-4.8,7.4-8c1.8-3.2,2.4-6.9,1.7-11.3c-0.7-4.7-2.8-8.2-6.3-10.7c-3.4-2.4-7.7-4.2-12.9-5.4
		c-5.1-1.2-10.9-2-17.3-2.5c-6.4-0.5-12.8-1.1-19.4-1.9c-6.7-0.6-13.3-1.6-19.8-2.9c-6.5-1.4-12.5-3.5-17.9-6.5
		c-5.4-2.9-10.1-7-13.9-12.1c-3.9-5.1-6.4-11.6-7.7-19.5c-1.4-8.9-0.7-16.9,2-24c2.8-7.1,6.9-13.4,12.3-18.7
		c5.4-5.3,11.9-9.6,19.3-13c7.4-3.3,15-5.6,22.7-6.8c9-1.4,17.9-1.8,26.5-1.1c8.6,0.7,16.5,2.8,23.7,6.3c7.2,3.5,13.2,8.5,18.1,14.9
		c4.9,6.4,8.1,14.6,9.7,24.6l-36.8,5.8c-1.1-5.1-2.9-9.2-5.3-12.3c-2.4-3.1-5.3-5.4-8.6-6.8c-3.4-1.5-7.1-2.3-11.2-2.4
		c-4.1-0.2-8.5,0.1-13.1,0.8c-3.1,0.5-6.1,1.3-9,2.4c-3,1.1-5.6,2.7-7.8,4.7c-2.2,2-4,4.4-5.2,7c-1.2,2.7-1.6,5.9-1,9.6
		c0.5,3.4,1.6,6,3.2,7.9c1.6,1.9,4.5,3.4,8.5,4.6c4.1,1.2,9.6,2.1,16.6,2.8c7,0.7,16.1,1.6,27.3,2.6c3.3,0.1,8,0.6,14,1.4
		c6,0.8,12.1,2.6,18.3,5.4c6.2,2.8,11.9,7,17,12.6c5.1,5.6,8.4,13.2,9.9,22.9c1.3,7.9,0.9,15.5-1.1,22.7c-2,7.3-5.6,13.8-10.9,19.7
		c-5.3,5.9-12.2,10.9-20.7,15.1c-8.5,4.2-18.7,7.2-30.4,9c-9.5,1.5-18.9,1.8-28.3,0.9c-9.3-0.9-17.8-3.3-25.5-7.3
		c-7.6-3.9-14.1-9.4-19.4-16.5c-5.3-7.1-8.7-16-10.2-26.7l36.8-5.8C551.2,3673,553,3677.8,555.8,3681.5z"/>
</g>
<g class="st0">
	<path class="st1" d="M1028.1,3605.5l-37.2-3.9c1-10.8,3.9-19.9,8.8-27.3c4.9-7.4,11.1-13.3,18.6-17.6c7.5-4.3,15.9-7.2,25.2-8.6
		c9.3-1.4,18.8-1.6,28.4-0.6c11.9,1.3,22.2,3.8,31,7.5c8.8,3.7,15.9,8.4,21.5,14c5.6,5.6,9.6,12,12,19.2c2.4,7.2,3.1,14.8,2.3,22.8
		c-1,9.8-4,17.6-8.8,23.5c-4.8,5.8-10.3,10.3-16.4,13.5c-6.1,3.1-12.2,5.3-18.1,6.4c-6,1.1-10.6,1.8-14,2.1
		c-11.2,1.6-20.3,3-27.3,4.1c-7,1.1-12.5,2.3-16.5,3.7c-4,1.4-6.8,3.1-8.3,5.1c-1.5,2-2.5,4.7-2.8,8.1c-0.4,3.8,0.1,6.9,1.5,9.6
		c1.4,2.6,3.2,4.9,5.6,6.8c2.4,1.9,5.1,3.3,8.1,4.3c3,1,6.1,1.6,9.2,2c4.7,0.5,9.1,0.5,13.2,0.2c4.1-0.4,7.8-1.4,11.1-3
		c3.3-1.6,6.1-4.1,8.3-7.3c2.2-3.2,3.8-7.4,4.7-12.6l37.2,3.9c-1.1,10.1-3.9,18.5-8.5,25.2c-4.6,6.7-10.4,12-17.4,15.9
		c-7,3.9-14.8,6.4-23.4,7.5c-8.6,1.2-17.5,1.2-26.6,0.3c-7.8-0.8-15.6-2.7-23.2-5.7c-7.6-2.9-14.3-7-20-12
		c-5.7-5.1-10.2-11.1-13.3-18.1c-3.1-7-4.2-15-3.3-24c0.8-8,3.1-14.6,6.7-20c3.6-5.3,8.1-9.6,13.4-12.8c5.3-3.2,11.2-5.7,17.6-7.4
		c6.4-1.7,13-3,19.7-4c6.6-1.1,13-2.1,19.4-2.9c6.4-0.8,12.1-1.9,17.2-3.4c5.1-1.4,9.3-3.5,12.6-6.1c3.3-2.6,5.2-6.3,5.7-11
		c0.5-4.4-0.3-8.2-2.3-11.3c-2-3.1-4.6-5.6-7.9-7.6c-3.3-2-6.8-3.5-10.7-4.5c-3.9-1-7.5-1.7-10.9-2c-5.1-0.5-10-0.4-14.9,0.3
		c-4.9,0.7-9.2,2.2-13,4.3c-3.8,2.2-6.9,5.2-9.5,9C1030.3,3594.7,1028.8,3599.6,1028.1,3605.5z"/>
</g>
<g class="st0">
	<path class="st3" d="M1028.1,3605.5l-37.2-3.9c1-10.8,3.9-19.9,8.8-27.3c4.9-7.4,11.1-13.3,18.6-17.6c7.5-4.3,15.9-7.2,25.2-8.6
		c9.3-1.4,18.8-1.6,28.4-0.6c11.9,1.3,22.2,3.8,31,7.5c8.8,3.7,15.9,8.4,21.5,14c5.6,5.6,9.6,12,12,19.2c2.4,7.2,3.1,14.8,2.3,22.8
		c-1,9.8-4,17.6-8.8,23.5c-4.8,5.8-10.3,10.3-16.4,13.5c-6.1,3.1-12.2,5.3-18.1,6.4c-6,1.1-10.6,1.8-14,2.1
		c-11.2,1.6-20.3,3-27.3,4.1c-7,1.1-12.5,2.3-16.5,3.7c-4,1.4-6.8,3.1-8.3,5.1c-1.5,2-2.5,4.7-2.8,8.1c-0.4,3.8,0.1,6.9,1.5,9.6
		c1.4,2.6,3.2,4.9,5.6,6.8c2.4,1.9,5.1,3.3,8.1,4.3c3,1,6.1,1.6,9.2,2c4.7,0.5,9.1,0.5,13.2,0.2c4.1-0.4,7.8-1.4,11.1-3
		c3.3-1.6,6.1-4.1,8.3-7.3c2.2-3.2,3.8-7.4,4.7-12.6l37.2,3.9c-1.1,10.1-3.9,18.5-8.5,25.2c-4.6,6.7-10.4,12-17.4,15.9
		c-7,3.9-14.8,6.4-23.4,7.5c-8.6,1.2-17.5,1.2-26.6,0.3c-7.8-0.8-15.6-2.7-23.2-5.7c-7.6-2.9-14.3-7-20-12
		c-5.7-5.1-10.2-11.1-13.3-18.1c-3.1-7-4.2-15-3.3-24c0.8-8,3.1-14.6,6.7-20c3.6-5.3,8.1-9.6,13.4-12.8c5.3-3.2,11.2-5.7,17.6-7.4
		c6.4-1.7,13-3,19.7-4c6.6-1.1,13-2.1,19.4-2.9c6.4-0.8,12.1-1.9,17.2-3.4c5.1-1.4,9.3-3.5,12.6-6.1c3.3-2.6,5.2-6.3,5.7-11
		c0.5-4.4-0.3-8.2-2.3-11.3c-2-3.1-4.6-5.6-7.9-7.6c-3.3-2-6.8-3.5-10.7-4.5c-3.9-1-7.5-1.7-10.9-2c-5.1-0.5-10-0.4-14.9,0.3
		c-4.9,0.7-9.2,2.2-13,4.3c-3.8,2.2-6.9,5.2-9.5,9C1030.3,3594.7,1028.8,3599.6,1028.1,3605.5z"/>
</g>
<g id="Group_4" transform="translate(-622.058 -99.613)">
	<g id="Rectangle_6" transform="translate(776 337)">
		<g>
			<path class="st4" d="M476.7,3464.5h11c1.7,0,3,1.3,3,3v10c0,1.7-1.3,3-3,3h-11c-1.7,0-3-1.3-3-3v-10
				C473.7,3465.8,475,3464.5,476.7,3464.5z"/>
		</g>
		<g>
			<path class="st5" d="M487.7,3480.5h-11c-1.7,0-3-1.3-3-3v-10c0-1.7,1.3-3,3-3h11c1.7,0,3,1.3,3,3v10
				C490.7,3479.2,489.3,3480.5,487.7,3480.5z M476.7,3465.5c-1.1,0-2,0.9-2,2v10c0,1.1,0.9,2,2,2h11c1.1,0,2-0.9,2-2v-10
				c0-1.1-0.9-2-2-2H476.7z"/>
		</g>
	</g>
	<g id="Group_2" transform="translate(789.15 334.601)">
		<g id="Path_1">
			<path class="st6" d="M479.5,3464.9h314.8l61.7,7.9l-61.7,10.1H479.5V3464.9z"/>
			<path class="st5" d="M479.5,3483.3H479v-18.9h315.3l61.8,7.9l0,1l-61.7,10.1L479.5,3483.3z M480,3482.3h314.3l58.3-9.5l-58.3-7.4
				l-314.2,0V3482.3z"/>
		</g>
		<g id="Line_1">
			<rect x="473.7" y="3473.7" class="st5" width="322" height="1.3"/>
		</g>
		<g id="Path_2">
			<polygon class="st5" points="791.8,3486.6 791,3486 795.3,3480.8 790.5,3477.7 795.1,3474.5 790.4,3472.4 795.2,3468.7 
				791.4,3466.2 791.1,3465.9 791.7,3465.1 792.3,3465.6 796.9,3468.6 792.4,3472.2 797.1,3474.3 792.3,3477.7 796.8,3480.6 			"/>
		</g>
		<g id="Path_3">
			<path class="st7" d="M834.9,3481.5"/>
		</g>
		<g id="Line_2">
			<rect x="479" y="3467.7" class="st5" width="316.7" height="1.3"/>
		</g>
		<g id="Line_3">
			<rect x="478.7" y="3479.8" class="st5" width="317" height="1.3"/>
		</g>
		<g id="Path_4">
			<path class="st5" d="M833.2,3476.6l0.5-6.8l21.6,3L833.2,3476.6z"/>
		</g>
		<g id="Path_5">
			<path class="st8" d="M834.9,3476l0.4-5.7l18.2,2.5L834.9,3476z"/>
		</g>
	</g>
	<g id="Rectangle_5" transform="translate(786 335)">
		<g>
			<rect x="473.7" y="3464.5" class="st5" width="11" height="18"/>
		</g>
		<g>
			<path class="st8" d="M484.7,3482.5h-11v-18h11V3482.5z M474.7,3481.5h9v-16h-9V3481.5z"/>
		</g>
	</g>
</g>
<circle class="st9" cx="-2763.4" cy="1589.7" r="631.2"/>
<g id="PsdnG8.tif">
	<g>
		<path class="st10" d="M-3043.7,1522.4c-0.4,20.6,2.4,45.9,8.5,70.5c19.1,75.9,58.9,138.3,124.9,181.6c71.6,47,149.3,57,230.3,29.9
			c68.6-23,119.3-68.9,154.4-131.6c33.6-60.2,45.5-125.2,37.4-193.6c-7.6-64.9-32.4-122.4-76.4-171.1
			c-47.6-52.7-106.4-83.9-177.6-90.4c-47.7-4.4-93.2,4-136.2,24.8c-60,29.1-103.7,74.8-133.1,134.1
			C-3033.5,1420.9-3043.9,1468-3043.7,1522.4z M-3230.5,2008c245.7,280.7,690.4,279.3,934.2,7c-19.8-17.5-39.3-35.4-59.6-52.4
			c-24.6-20.6-51.9-37.5-80.5-51.9c-20.8-10.5-41.9-20.8-63.6-29.1c-26.3-10-53.2-19.1-80.4-26c-27.1-6.9-55-10.9-82.7-15.6
			c-13.7-2.3-27.5-3.6-41.3-4.9c-12.6-1.2-25.3-2.4-38-2.4c-24.9-0.1-49.9-0.1-74.8,1.4c-21.5,1.3-42.9,4.3-64.2,7.4
			c-17.7,2.6-35.4,5.8-53,9.6c-36.5,8-72.3,18.4-106.6,33.4c-25.3,11.1-50.7,22.5-74.6,36.3c-22.6,13-44,28.4-64.9,44.3
			C-3197.9,1978-3213.6,1993.3-3230.5,2008z"/>
		<path class="st10" d="M-3043.7,1522.4c-0.1-54.4,10.3-101.5,32.2-145.8c29.4-59.4,73.1-105.1,133.1-134.1
			c43-20.8,88.5-29.2,136.2-24.8c71.3,6.5,130,37.7,177.6,90.4c43.9,48.7,68.7,106.2,76.4,171.1c8.1,68.4-3.8,133.4-37.4,193.6
			c-35,62.8-85.8,108.7-154.4,131.6c-81.1,27.1-158.7,17.1-230.3-29.9c-66-43.3-105.8-105.7-124.9-181.6
			C-3041.4,1568.2-3044.2,1543-3043.7,1522.4z"/>
		<path class="st10" d="M-3230.5,2008c16.9-14.7,32.6-29.9,50-43.1c20.9-15.8,42.2-31.3,64.9-44.3c23.9-13.7,49.3-25.2,74.6-36.3
			c34.2-15,70.1-25.3,106.6-33.4c17.5-3.9,35.2-7.1,53-9.6c21.3-3.1,42.7-6.1,64.2-7.4c24.9-1.5,49.9-1.4,74.8-1.4
			c12.7,0,25.4,1.2,38,2.4c13.8,1.3,27.7,2.6,41.3,4.9c27.7,4.7,55.5,8.7,82.7,15.6c27.3,6.9,54.1,16,80.4,26
			c21.8,8.3,42.8,18.6,63.6,29.1c28.7,14.4,55.9,31.3,80.5,51.9c20.3,16.9,39.7,34.9,59.6,52.4
			C-2540.1,2287.3-2984.8,2288.6-3230.5,2008z"/>
	</g>
</g>
<g>
	<defs>
		<rect id="SVGID_1_" x="133.3" y="94.4" width="1230.3" height="1229.6"/>
	</defs>
	<clipPath id="SVGID_00000081615126442424863610000007488597704454741649_">
		<use xlink:href="#SVGID_1_"  style="overflow:visible;"/>
	</clipPath>
	<g id="Group_21" style="clip-path:url(#SVGID_00000081615126442424863610000007488597704454741649_);">
		<path id="Path_45" class="st8" d="M932.6,658.3c0,25.3,0,50,0,74.7c0.1,34-0.5,68.1,0.6,102.1c0.5,16.7-1.2,20.1-17.9,20.2
			c-27.6,0.1-55.1,0.1-82.7,0.1c-39.8,0-59.4,19.7-59.4,59.9c-0.1,75.4-0.1,150.8-0.1,226.2c0,31.6-0.6,63.3,1.1,94.8
			c1.6,25.4,22,45.6,47.4,47c31.5,1.4,54.6-21.7,54.6-54.8c0-83.9,0-167.8,0-251.7c0-15.2,4.4-19.6,19.2-19.8
			c57.9-0.7,115.8-1.5,173.7-2.2c73.7-0.6,133.2-60.5,133.3-134.2c0.2-70.1,0.2-140.3,0-210.4c0.7-20.6-0.2-41.3-2.6-61.7
			c-9.8-61-62.3-109.8-117.6-114.4c-65.9-6.7-127.1,34.8-145.3,98.5c-6.1,22.5-8.9,23.8-32.6,22.1c-56.9-3.9-103.7-31.6-148.7-63.3
			c-8.4-5.9-7.9-15.8,0.1-22.8c4.9-4.3,10.3-7.9,15.5-11.8c12.4-9.4,13.4-14.8,4.6-27.2c-41.7-58.8-83.5-117.6-125.3-176.3
			c-9-12.6-14.4-13.4-27.2-4.3c-24,17.3-48,34.6-71.9,52c-12.7,9.3-13.7,15-4.3,28.1c23.5,33,47.1,65.9,70.7,98.8
			c6,6.3,6.6,16,1.5,23.1c-14.2,23.3-11.7,46.5,9,64.7c31.2,28.8,64.1,55.7,98.6,80.5C788,637.5,854.9,663.8,932.6,658.3
			 M137.3,801.4L137.3,801.4c0,57.6,0,115.1,0,172.7c0,17.9,1.3,19.2,19.5,19.2c86.7,0,173.4,0,260.2,0c22,0,26.4,4.4,26.4,26.1
			c0,81.5,0,162.9,0.1,244.4c-0.3,6.9,0.4,13.7,1.9,20.4c6.1,24.2,29.2,40.2,54,37.3c26.1-4,43.1-24.9,43.1-53.4
			c0.1-103.4,0.1-206.7,0-310.1c0-39.2-22.5-61.3-62.1-61.2c-36.1,0.1-72.1,0.1-108.2,0.1c-18.9,0-23.4-4.4-23.4-23.7
			c0-60,0.3-120-0.1-180c0.7-25.5-0.2-51-2.7-76.4c-7.3-53.3-58.2-93.9-109.8-89.8c-55.6,3.6-98.8,49.7-98.8,105.4
			C137.1,688.7,137.3,745.1,137.3,801.4 M1363.4,902.3c0-69.7,0-139.4,0-209.1c0-54.3,0.4-108.6-0.2-162.9
			c0.1-28.5-22.9-51.8-51.5-51.9c-5.8,0-11.5,0.9-16.9,2.8c-22.2,7.5-35.7,28.6-35.7,56.5c0,144.3-0.1,288.5,0,432.8
			c0,20.4-2.9,23.3-23,23.3c-83.9,0-167.7,0-251.6,0c-30.4,0-53.5,20.4-53.7,49.5c-0.6,75.8-0.6,151.6,0,227.3
			c-0.2,28.8,22.9,52.3,51.7,52.5c4.3,0,8.6-0.5,12.8-1.5c23.6-5.9,38.3-27,38.3-55.2c0-49.4,0-98.9,0-148.3
			c0-18.2,4.7-22.8,23.1-22.8c60,0,119.9,0,179.9-0.1c19.8,0,24.4,4.6,24.4,24c0,50.2-0.3,100.5,0.1,150.7
			c-0.5,28.8,22.4,52.6,51.3,53.1c4.2,0.1,8.5-0.4,12.6-1.3c23.3-5.6,38.3-25.8,38.3-52.3C1363.4,1147.1,1363.4,1024.7,1363.4,902.3
			 M643.7,706.8c-65.6,0-131.2-0.1-196.9,0.1c-30.9,0.1-54.2,22.1-54,50.5c0.2,28.4,22.7,48.8,53.7,48.8c41.7,0.1,83.5,0,125.2,0.1
			c13.6,0,20.1,6.4,20.4,19.9c0.2,10.5,0,21.1,0,31.6c0,99.3,0,198.5,0,297.8c-0.4,21.7,12.9,41.3,33.2,49
			c33.3,11.9,65.9-12.8,65.9-50.6c0.2-108.6,0.2-217.2,0.1-325.8c0-19.2,5-24.1,24.5-24.1c42.1,0,84.3,0.3,126.4-0.3
			c26.9,0,48.7-21.7,48.9-48.5c-1-27.7-24.2-49.4-51.9-48.5C774.1,706.6,708.9,706.7,643.7,706.8 M1147.4,224.3
			c-0.1-71.8-58.5-129.9-130.3-129.8c-71.8,0.1-129.9,58.5-129.8,130.3c0.1,71.8,58.5,129.9,130.3,129.8c0.6,0,1.2,0,1.8,0
			C1090.4,353.2,1147.3,295.3,1147.4,224.3 M241.4,249c-59.3-0.4-107.6,47.3-108.2,106.6c-0.7,57.6,47.9,107.8,104.4,107.9
			c63.2,0.1,111.2-46.7,111.1-108.4C348.1,296.2,300.2,248.9,241.4,249 M264.4,1034v0.1c-31.6,0-63.2-0.7-94.8,0.3
			c-19.2,0.1-34.7,15.7-34.7,35c0,0.4,0,0.8,0,1.3c0.5,19,15.1,32.2,36.4,32.7c14.2,0.3,28.4,0.8,42.5-0.2c12-0.8,15,3.6,14.9,15.1
			c-0.5,54.7-0.4,109.4-0.2,164.1c0.1,24.2,14.8,41.3,35,41.7c20.6,0.4,34.4-15.7,34.5-41c0.1-54.7,0.4-109.4-0.2-164.1
			c-0.1-12,2.5-16.8,15.3-15.8c14.5,1.5,29.2,1.3,43.6-0.4c9.8-1.5,18.9-5.8,26.4-12.3c9.9-9.2,12.6-23.8,6.5-35.9
			c-5.1-12.9-17.8-21.1-31.7-20.4C326.8,1033.8,295.6,1034,264.4,1034"/>
		<path id="Path_46" class="st8" d="M932.6,658.3c-77.7,5.4-144.5-20.8-205.4-62.4c-34.4-24.8-67.4-51.7-98.6-80.5
			c-20.8-18.2-23.2-41.3-9-64.7c5.1-7.1,4.4-16.7-1.5-23c-23.8-32.8-47.3-65.7-70.7-98.8c-9.3-13.1-8.4-18.9,4.3-28.1
			c23.9-17.4,47.9-34.7,71.9-52c12.7-9.1,18.2-8.3,27.2,4.3c41.8,58.7,83.6,117.5,125.3,176.3c8.8,12.4,7.7,17.9-4.6,27.2
			c-5.2,3.9-10.6,7.5-15.5,11.8c-8,7-8.5,16.9-0.1,22.8c45,31.8,91.8,59.4,148.7,63.3c23.7,1.6,26.5,0.3,32.6-22.1
			c18.2-63.7,79.4-105.2,145.3-98.4c55.3,4.6,107.8,53.4,117.6,114.4c2.5,20.5,3.4,41.1,2.7,61.7c0.3,70.1,0.3,140.3,0,210.4
			c0,73.8-59.6,133.7-133.3,134.2c-57.9,0.7-115.8,1.4-173.7,2.2c-14.8,0.2-19.2,4.6-19.2,19.8c0,83.9,0,167.8,0,251.7
			c0,33.1-23.1,56.2-54.6,54.8c-25.4-1.4-45.8-21.5-47.4-47c-1.8-31.5-1.1-63.2-1.1-94.8c-0.1-75.4-0.1-150.8,0.1-226.2
			c0-40.2,19.6-59.9,59.4-59.9c27.6,0,55.1,0,82.7-0.1c16.7,0,18.4-3.5,17.9-20.2c-1-34-0.5-68.1-0.6-102.1
			C932.6,708.3,932.6,683.7,932.6,658.3"/>
		<path id="Path_47" class="st8" d="M137.4,801.4c0-56.3-0.2-112.7,0.1-169c0-55.7,43.2-101.8,98.8-105.3
			c51.6-4.1,102.5,36.5,109.8,89.8c2.5,25.4,3.5,50.9,2.7,76.4c0.3,60,0,120,0.1,180c0,19.3,4.4,23.7,23.4,23.7
			c36.1,0,72.1,0,108.2-0.1c39.6-0.1,62.1,22,62.1,61.2c0,103.4,0,206.7,0,310.1c0,28.6-17,49.4-43.1,53.4
			c-24.8,2.9-47.9-13.1-54-37.3c-1.6-6.7-2.2-13.5-1.9-20.4c-0.1-81.5-0.2-162.9-0.1-244.4c0-21.7-4.4-26.1-26.4-26.1
			c-86.7,0-173.4,0-260.2,0c-18.2,0-19.5-1.3-19.5-19.2C137.3,916.5,137.3,859,137.4,801.4L137.4,801.4z"/>
		<path id="Path_48" class="st8" d="M1363.4,902.3c0,122.4,0,244.8,0,367.1c0,26.6-15,46.8-38.3,52.3c-28.1,6.5-56.1-11-62.6-39.1
			c-1-4.1-1.4-8.4-1.3-12.6c-0.4-50.2-0.1-100.5-0.1-150.7c0-19.4-4.7-24-24.4-24c-60,0-119.9,0-179.9,0.1
			c-18.4,0-23.1,4.6-23.1,22.8c0,49.4,0,98.9,0,148.3c0,28.3-14.6,49.3-38.3,55.2c-28,6.9-56.2-10.2-63.1-38.2
			c-1-4.2-1.5-8.5-1.5-12.8c-0.6-75.8-0.6-151.6,0-227.3c0.2-29,23.3-49.4,53.7-49.5c83.9-0.1,167.7-0.1,251.6,0
			c20.1,0,23-2.9,23-23.3c0-144.3,0-288.5,0-432.8c0-27.9,13.5-49,35.7-56.5c27-9.2,56.4,5.1,65.6,32.1c1.9,5.5,2.8,11.2,2.8,17
			c0.6,54.3,0.2,108.6,0.2,162.9C1363.4,762.9,1363.4,832.6,1363.4,902.3"/>
		<path id="Path_49" class="st8" d="M643.7,706.8c65.2,0,130.4-0.1,195.7,0.1c27.7-0.9,50.9,20.8,51.9,48.5
			c-0.2,26.9-22.1,48.5-48.9,48.5c-42.1,0.6-84.3,0.3-126.4,0.3c-19.5,0-24.5,4.9-24.5,24.1c0,108.6,0,217.2-0.1,325.8
			c-0.1,37.8-32.6,62.5-65.9,50.6c-20.3-7.7-33.5-27.3-33.2-49c-0.1-99.3-0.1-198.5,0-297.8c0-10.5,0.2-21.1,0-31.6
			c-0.3-13.5-6.7-19.9-20.4-19.9c-41.7-0.1-83.5-0.1-125.2-0.1c-30.9,0-53.5-20.5-53.7-48.8s23-50.4,54-50.5
			C512.5,706.7,578.1,706.8,643.7,706.8"/>
		<path id="Path_50" class="st8" d="M1147.4,224.3c0.4,71.8-57.5,130.3-129.3,130.7c-71.8,0.4-130.3-57.5-130.7-129.3l0,0
			c-0.4-71.8,57.5-130.3,129.3-130.7S1147,152.5,1147.4,224.3"/>
		<path id="Path_51" class="st8" d="M241.4,249c58.8-0.1,106.7,47.2,107.3,106c0.1,61.7-47.8,108.5-111.1,108.4
			c-56.5-0.1-105.1-50.3-104.4-107.9C133.8,296.2,182.2,248.6,241.4,249"/>
		<path id="Path_52" class="st8" d="M264.4,1034c31.2,0,62.4-0.2,93.6,0.1c13.9-0.7,26.6,7.5,31.7,20.4c6.1,12.1,3.4,26.7-6.5,35.9
			c-7.4,6.5-16.6,10.8-26.4,12.3c-14.5,1.7-29.1,1.8-43.6,0.4c-12.8-1-15.4,3.9-15.3,15.8c0.6,54.7,0.4,109.4,0.2,164.1
			c-0.1,25.3-13.8,41.4-34.5,41c-20.2-0.4-34.9-17.5-35-41.7c-0.2-54.7-0.4-109.4,0.2-164.1c0.1-11.5-2.9-15.9-14.9-15.1
			c-14.1,1-28.4,0.5-42.5,0.2c-21.3-0.5-35.8-13.7-36.4-32.7c-0.8-19.2,14.2-35.4,33.4-36.2c0.4,0,0.8,0,1.3,0
			C201.2,1033.4,232.8,1034.1,264.4,1034L264.4,1034"/>
	</g>
</g>
</svg>
