<?xml version="1.0" encoding="utf-8"?>
<!-- Generator: Adobe Illustrator 27.2.0, SVG Export Plug-In . SVG Version: 6.00 Build 0)  -->
<svg version="1.1" id="Laag_1" xmlns="http://www.w3.org/2000/svg" xmlns:xlink="http://www.w3.org/1999/xlink" x="0px" y="0px"
	 viewBox="0 0 1496.8 1418.4" style="enable-background:new 0 0 1496.8 1418.4;" xml:space="preserve">
<style type="text/css">
	.st0{enable-background:new    ;}
	.st1{fill:#774CBC;}
	.st2{fill:none;stroke:#FFFFFF;stroke-width:5;}
	.st3{fill:none;stroke:#FFFFFF;stroke-width:3.0016;stroke-miterlimit:4.0021;}
	.st4{fill:#C4B8DD;}
	.st5{fill:#FFFFFF;}
	.st6{fill:#9371C9;}
	.st7{fill:none;stroke:#FFFFFF;stroke-width:2;}
	.st8{fill:#714EB6;}
	.st9{fill:#F2EBFF;}
	.st10{fill:#BBB7BF;}
	.st11{clip-path:url(#SVGID_00000059281523373992477270000014562045630718815146_);}
</style>
<g class="st0">
	<path class="st1" d="M626,3582.6v-24.6h108.8v24.6h-39.8v108.3h-29.2v-108.3H626z"/>
	<path class="st1" d="M847.8,3680.8c-10,8.7-23.9,13.1-41.7,13.1c-18,0-31.9-4.3-41.8-13c-9.9-8.7-14.8-22.1-14.8-40.2v-82.6h29.2
		v82.6c0,3.6,0.3,7.1,0.9,10.6c0.6,3.5,1.9,6.5,3.9,9.2c2,2.7,4.7,4.8,8.3,6.5c3.5,1.7,8.3,2.5,14.2,2.5c10.4,0,17.6-2.3,21.6-7
		c4-4.6,6-11.9,6-21.9v-82.6h29.2v82.6C862.8,3658.6,857.8,3672,847.8,3680.8z"/>
	<path class="st1" d="M945.2,3558.1c8.6,0,16.5,1.4,23.9,4.1c7.4,2.7,13.8,6.8,19.2,12.3c5.4,5.5,9.6,12.3,12.6,20.5
		c3,8.2,4.6,17.8,4.6,28.8c0,9.7-1.2,18.6-3.7,26.8c-2.5,8.2-6.2,15.3-11.3,21.2s-11.3,10.6-18.8,14c-7.5,3.4-16.3,5.1-26.5,5.1
		h-57.3v-132.8H945.2z M943.2,3666.3c4.2,0,8.3-0.7,12.3-2c4-1.4,7.5-3.6,10.6-6.8c3.1-3.2,5.6-7.3,7.4-12.4
		c1.9-5.1,2.8-11.3,2.8-18.6c0-6.7-0.7-12.7-2-18.1c-1.3-5.4-3.4-10-6.4-13.9c-3-3.8-6.9-6.8-11.8-8.8c-4.9-2-10.9-3.1-18.1-3.1
		h-20.8v83.7H943.2z"/>
</g>
<g class="st0">
	<path class="st1" d="M555.8,3681.5c2.7,3.7,6,6.5,9.9,8.5c3.9,2,8.2,3.2,13.1,3.6c4.9,0.5,9.8,0.3,14.8-0.5c3.4-0.5,7-1.4,10.8-2.6
		c3.8-1.2,7.2-2.8,10.4-5c3.1-2.1,5.6-4.8,7.4-8c1.8-3.2,2.4-6.9,1.7-11.3c-0.7-4.7-2.8-8.2-6.3-10.7c-3.4-2.4-7.7-4.2-12.9-5.4
		c-5.1-1.2-10.9-2-17.3-2.5c-6.4-0.5-12.8-1.1-19.4-1.9c-6.7-0.6-13.3-1.6-19.8-2.9c-6.5-1.4-12.5-3.5-17.9-6.5
		c-5.4-2.9-10.1-7-13.9-12.1c-3.9-5.1-6.4-11.6-7.7-19.5c-1.4-8.9-0.7-16.9,2-24c2.8-7.1,6.9-13.4,12.3-18.7
		c5.4-5.3,11.9-9.6,19.3-13c7.4-3.3,15-5.6,22.7-6.8c9-1.4,17.9-1.8,26.5-1.1c8.6,0.7,16.5,2.8,23.7,6.3c7.2,3.5,13.2,8.5,18.1,14.9
		c4.9,6.4,8.1,14.6,9.7,24.6l-36.8,5.8c-1.1-5.1-2.9-9.2-5.3-12.3c-2.4-3.1-5.3-5.4-8.6-6.8c-3.4-1.5-7.1-2.3-11.2-2.4
		c-4.1-0.2-8.5,0.1-13.1,0.8c-3.1,0.5-6.1,1.3-9,2.4c-3,1.1-5.6,2.7-7.8,4.7c-2.2,2-4,4.4-5.2,7c-1.2,2.7-1.6,5.9-1,9.6
		c0.5,3.4,1.6,6,3.2,7.9c1.6,1.9,4.5,3.4,8.5,4.6c4.1,1.2,9.6,2.1,16.6,2.8c7,0.7,16.1,1.6,27.3,2.6c3.3,0.1,8,0.6,14,1.4
		c6,0.8,12.1,2.6,18.3,5.4c6.2,2.8,11.9,7,17,12.6c5.1,5.6,8.4,13.2,9.9,22.9c1.3,7.9,0.9,15.5-1.1,22.7c-2,7.3-5.6,13.8-10.9,19.7
		c-5.3,5.9-12.2,10.9-20.7,15.1c-8.5,4.2-18.7,7.2-30.4,9c-9.5,1.5-18.9,1.8-28.3,0.9c-9.3-0.9-17.8-3.3-25.5-7.3
		c-7.6-3.9-14.1-9.4-19.4-16.5c-5.3-7.1-8.7-16-10.2-26.7l36.8-5.8C551.2,3673,553,3677.8,555.8,3681.5z"/>
</g>
<g class="st0">
	<path class="st2" d="M555.8,3681.5c2.7,3.7,6,6.5,9.9,8.5c3.9,2,8.2,3.2,13.1,3.6c4.9,0.5,9.8,0.3,14.8-0.5c3.4-0.5,7-1.4,10.8-2.6
		c3.8-1.2,7.2-2.8,10.4-5c3.1-2.1,5.6-4.8,7.4-8c1.8-3.2,2.4-6.9,1.7-11.3c-0.7-4.7-2.8-8.2-6.3-10.7c-3.4-2.4-7.7-4.2-12.9-5.4
		c-5.1-1.2-10.9-2-17.3-2.5c-6.4-0.5-12.8-1.1-19.4-1.9c-6.7-0.6-13.3-1.6-19.8-2.9c-6.5-1.4-12.5-3.5-17.9-6.5
		c-5.4-2.9-10.1-7-13.9-12.1c-3.9-5.1-6.4-11.6-7.7-19.5c-1.4-8.9-0.7-16.9,2-24c2.8-7.1,6.9-13.4,12.3-18.7
		c5.4-5.3,11.9-9.6,19.3-13c7.4-3.3,15-5.6,22.7-6.8c9-1.4,17.9-1.8,26.5-1.1c8.6,0.7,16.5,2.8,23.7,6.3c7.2,3.5,13.2,8.5,18.1,14.9
		c4.9,6.4,8.1,14.6,9.7,24.6l-36.8,5.8c-1.1-5.1-2.9-9.2-5.3-12.3c-2.4-3.1-5.3-5.4-8.6-6.8c-3.4-1.5-7.1-2.3-11.2-2.4
		c-4.1-0.2-8.5,0.1-13.1,0.8c-3.1,0.5-6.1,1.3-9,2.4c-3,1.1-5.6,2.7-7.8,4.7c-2.2,2-4,4.4-5.2,7c-1.2,2.7-1.6,5.9-1,9.6
		c0.5,3.4,1.6,6,3.2,7.9c1.6,1.9,4.5,3.4,8.5,4.6c4.1,1.2,9.6,2.1,16.6,2.8c7,0.7,16.1,1.6,27.3,2.6c3.3,0.1,8,0.6,14,1.4
		c6,0.8,12.1,2.6,18.3,5.4c6.2,2.8,11.9,7,17,12.6c5.1,5.6,8.4,13.2,9.9,22.9c1.3,7.9,0.9,15.5-1.1,22.7c-2,7.3-5.6,13.8-10.9,19.7
		c-5.3,5.9-12.2,10.9-20.7,15.1c-8.5,4.2-18.7,7.2-30.4,9c-9.5,1.5-18.9,1.8-28.3,0.9c-9.3-0.9-17.8-3.3-25.5-7.3
		c-7.6-3.9-14.1-9.4-19.4-16.5c-5.3-7.1-8.7-16-10.2-26.7l36.8-5.8C551.2,3673,553,3677.8,555.8,3681.5z"/>
</g>
<g class="st0">
	<path class="st1" d="M1029.1,3605.5l-37.2-3.9c1-10.8,3.9-19.9,8.8-27.3c4.9-7.4,11.1-13.3,18.6-17.6c7.5-4.3,15.9-7.2,25.2-8.6
		c9.3-1.4,18.8-1.6,28.4-0.6c11.9,1.3,22.2,3.8,31,7.5c8.8,3.7,15.9,8.4,21.5,14c5.6,5.6,9.6,12,12,19.2c2.4,7.2,3.1,14.8,2.3,22.8
		c-1,9.8-4,17.6-8.8,23.5c-4.8,5.8-10.3,10.3-16.4,13.5c-6.1,3.1-12.2,5.3-18.1,6.4c-6,1.1-10.6,1.8-14,2.1
		c-11.2,1.6-20.3,3-27.3,4.1c-7,1.1-12.5,2.3-16.5,3.7c-4,1.4-6.8,3.1-8.3,5.1c-1.5,2-2.5,4.7-2.8,8.1c-0.4,3.8,0.1,6.9,1.5,9.6
		c1.4,2.6,3.2,4.9,5.6,6.8c2.4,1.9,5,3.3,8.1,4.3c3,1,6.1,1.6,9.2,2c4.7,0.5,9.1,0.5,13.2,0.2c4.1-0.4,7.8-1.4,11.1-3
		c3.3-1.6,6.1-4.1,8.3-7.3c2.2-3.2,3.8-7.4,4.7-12.6l37.2,3.9c-1.1,10.1-3.9,18.5-8.5,25.2c-4.6,6.7-10.4,12-17.4,15.9
		c-7,3.9-14.8,6.4-23.4,7.5c-8.6,1.2-17.5,1.2-26.6,0.3c-7.8-0.8-15.6-2.7-23.2-5.7c-7.6-2.9-14.3-7-20-12
		c-5.7-5.1-10.2-11.1-13.3-18.1c-3.1-7-4.2-15-3.3-24c0.8-8,3.1-14.6,6.7-20c3.6-5.3,8.1-9.6,13.4-12.8c5.3-3.2,11.2-5.7,17.6-7.4
		c6.4-1.7,13-3,19.7-4c6.6-1.1,13-2.1,19.4-2.9c6.4-0.8,12.1-1.9,17.2-3.4c5.1-1.4,9.3-3.5,12.6-6.1c3.3-2.6,5.2-6.3,5.7-11
		c0.5-4.4-0.3-8.2-2.3-11.3c-2-3.1-4.6-5.6-7.9-7.6c-3.3-2-6.8-3.5-10.7-4.5c-3.9-1-7.5-1.7-10.9-2c-5.1-0.5-10-0.4-14.9,0.3
		c-4.9,0.7-9.2,2.2-13,4.3c-3.8,2.2-6.9,5.2-9.5,9C1031.3,3594.7,1029.8,3599.6,1029.1,3605.5z"/>
</g>
<g class="st0">
	<path class="st3" d="M1029.1,3605.5l-37.2-3.9c1-10.8,3.9-19.9,8.8-27.3c4.9-7.4,11.1-13.3,18.6-17.6c7.5-4.3,15.9-7.2,25.2-8.6
		c9.3-1.4,18.8-1.6,28.4-0.6c11.9,1.3,22.2,3.8,31,7.5c8.8,3.7,15.9,8.4,21.5,14c5.6,5.6,9.6,12,12,19.2c2.4,7.2,3.1,14.8,2.3,22.8
		c-1,9.8-4,17.6-8.8,23.5c-4.8,5.8-10.3,10.3-16.4,13.5c-6.1,3.1-12.2,5.3-18.1,6.4c-6,1.1-10.6,1.8-14,2.1
		c-11.2,1.6-20.3,3-27.3,4.1c-7,1.1-12.5,2.3-16.5,3.7c-4,1.4-6.8,3.1-8.3,5.1c-1.5,2-2.5,4.7-2.8,8.1c-0.4,3.8,0.1,6.9,1.5,9.6
		c1.4,2.6,3.2,4.9,5.6,6.8c2.4,1.9,5,3.3,8.1,4.3c3,1,6.1,1.6,9.2,2c4.7,0.5,9.1,0.5,13.2,0.2c4.1-0.4,7.8-1.4,11.1-3
		c3.3-1.6,6.1-4.1,8.3-7.3c2.2-3.2,3.8-7.4,4.7-12.6l37.2,3.9c-1.1,10.1-3.9,18.5-8.5,25.2c-4.6,6.7-10.4,12-17.4,15.9
		c-7,3.9-14.8,6.4-23.4,7.5c-8.6,1.2-17.5,1.2-26.6,0.3c-7.8-0.8-15.6-2.7-23.2-5.7c-7.6-2.9-14.3-7-20-12
		c-5.7-5.1-10.2-11.1-13.3-18.1c-3.1-7-4.2-15-3.3-24c0.8-8,3.1-14.6,6.7-20c3.6-5.3,8.1-9.6,13.4-12.8c5.3-3.2,11.2-5.7,17.6-7.4
		c6.4-1.7,13-3,19.7-4c6.6-1.1,13-2.1,19.4-2.9c6.4-0.8,12.1-1.9,17.2-3.4c5.1-1.4,9.3-3.5,12.6-6.1c3.3-2.6,5.2-6.3,5.7-11
		c0.5-4.4-0.3-8.2-2.3-11.3c-2-3.1-4.6-5.6-7.9-7.6c-3.3-2-6.8-3.5-10.7-4.5c-3.9-1-7.5-1.7-10.9-2c-5.1-0.5-10-0.4-14.9,0.3
		c-4.9,0.7-9.2,2.2-13,4.3c-3.8,2.2-6.9,5.2-9.5,9C1031.3,3594.7,1029.8,3599.6,1029.1,3605.5z"/>
</g>
<g class="st0">
	<path class="st1" d="M626,3582.6v-24.6h108.8v24.6h-39.8v108.3h-29.2v-108.3H626z"/>
	<path class="st1" d="M847.8,3680.8c-10,8.7-23.9,13.1-41.7,13.1c-18,0-31.9-4.3-41.8-13c-9.9-8.7-14.8-22.1-14.8-40.2v-82.6h29.2
		v82.6c0,3.6,0.3,7.1,0.9,10.6c0.6,3.5,1.9,6.5,3.9,9.2c2,2.7,4.7,4.8,8.3,6.5c3.5,1.7,8.3,2.5,14.2,2.5c10.4,0,17.6-2.3,21.6-7
		c4-4.6,6-11.9,6-21.9v-82.6h29.2v82.6C862.8,3658.6,857.8,3672,847.8,3680.8z"/>
	<path class="st1" d="M945.2,3558.1c8.6,0,16.5,1.4,23.9,4.1c7.4,2.7,13.8,6.8,19.2,12.3c5.4,5.5,9.6,12.3,12.6,20.5
		c3,8.2,4.6,17.8,4.6,28.8c0,9.7-1.2,18.6-3.7,26.8c-2.5,8.2-6.2,15.3-11.3,21.2s-11.3,10.6-18.8,14c-7.5,3.4-16.3,5.1-26.5,5.1
		h-57.3v-132.8H945.2z M943.2,3666.3c4.2,0,8.3-0.7,12.3-2c4-1.4,7.5-3.6,10.6-6.8c3.1-3.2,5.6-7.3,7.4-12.4
		c1.9-5.1,2.8-11.3,2.8-18.6c0-6.7-0.7-12.7-2-18.1c-1.3-5.4-3.4-10-6.4-13.9c-3-3.8-6.9-6.8-11.8-8.8c-4.9-2-10.9-3.1-18.1-3.1
		h-20.8v83.7H943.2z"/>
</g>
<g class="st0">
	<path class="st1" d="M555.8,3681.5c2.7,3.7,6,6.5,9.9,8.5c3.9,2,8.2,3.2,13.1,3.6c4.9,0.5,9.8,0.3,14.8-0.5c3.4-0.5,7-1.4,10.8-2.6
		c3.8-1.2,7.2-2.8,10.4-5c3.1-2.1,5.6-4.8,7.4-8c1.8-3.2,2.4-6.9,1.7-11.3c-0.7-4.7-2.8-8.2-6.3-10.7c-3.4-2.4-7.7-4.2-12.9-5.4
		c-5.1-1.2-10.9-2-17.3-2.5c-6.4-0.5-12.8-1.1-19.4-1.9c-6.7-0.6-13.3-1.6-19.8-2.9c-6.5-1.4-12.5-3.5-17.9-6.5
		c-5.4-2.9-10.1-7-13.9-12.1c-3.9-5.1-6.4-11.6-7.7-19.5c-1.4-8.9-0.7-16.9,2-24c2.8-7.1,6.9-13.4,12.3-18.7
		c5.4-5.3,11.9-9.6,19.3-13c7.4-3.3,15-5.6,22.7-6.8c9-1.4,17.9-1.8,26.5-1.1c8.6,0.7,16.5,2.8,23.7,6.3c7.2,3.5,13.2,8.5,18.1,14.9
		c4.9,6.4,8.1,14.6,9.7,24.6l-36.8,5.8c-1.1-5.1-2.9-9.2-5.3-12.3c-2.4-3.1-5.3-5.4-8.6-6.8c-3.4-1.5-7.1-2.3-11.2-2.4
		c-4.1-0.2-8.5,0.1-13.1,0.8c-3.1,0.5-6.1,1.3-9,2.4c-3,1.1-5.6,2.7-7.8,4.7c-2.2,2-4,4.4-5.2,7c-1.2,2.7-1.6,5.9-1,9.6
		c0.5,3.4,1.6,6,3.2,7.9c1.6,1.9,4.5,3.4,8.5,4.6c4.1,1.2,9.6,2.1,16.6,2.8c7,0.7,16.1,1.6,27.3,2.6c3.3,0.1,8,0.6,14,1.4
		c6,0.8,12.1,2.6,18.3,5.4c6.2,2.8,11.9,7,17,12.6c5.1,5.6,8.4,13.2,9.9,22.9c1.3,7.9,0.9,15.5-1.1,22.7c-2,7.3-5.6,13.8-10.9,19.7
		c-5.3,5.9-12.2,10.9-20.7,15.1c-8.5,4.2-18.7,7.2-30.4,9c-9.5,1.5-18.9,1.8-28.3,0.9c-9.3-0.9-17.8-3.3-25.5-7.3
		c-7.6-3.9-14.1-9.4-19.4-16.5c-5.3-7.1-8.7-16-10.2-26.7l36.8-5.8C551.2,3673,553,3677.8,555.8,3681.5z"/>
</g>
<g class="st0">
	<path class="st2" d="M555.8,3681.5c2.7,3.7,6,6.5,9.9,8.5c3.9,2,8.2,3.2,13.1,3.6c4.9,0.5,9.8,0.3,14.8-0.5c3.4-0.5,7-1.4,10.8-2.6
		c3.8-1.2,7.2-2.8,10.4-5c3.1-2.1,5.6-4.8,7.4-8c1.8-3.2,2.4-6.9,1.7-11.3c-0.7-4.7-2.8-8.2-6.3-10.7c-3.4-2.4-7.7-4.2-12.9-5.4
		c-5.1-1.2-10.9-2-17.3-2.5c-6.4-0.5-12.8-1.1-19.4-1.9c-6.7-0.6-13.3-1.6-19.8-2.9c-6.5-1.4-12.5-3.5-17.9-6.5
		c-5.4-2.9-10.1-7-13.9-12.1c-3.9-5.1-6.4-11.6-7.7-19.5c-1.4-8.9-0.7-16.9,2-24c2.8-7.1,6.9-13.4,12.3-18.7
		c5.4-5.3,11.9-9.6,19.3-13c7.4-3.3,15-5.6,22.7-6.8c9-1.4,17.9-1.8,26.5-1.1c8.6,0.7,16.5,2.8,23.7,6.3c7.2,3.5,13.2,8.5,18.1,14.9
		c4.9,6.4,8.1,14.6,9.7,24.6l-36.8,5.8c-1.1-5.1-2.9-9.2-5.3-12.3c-2.4-3.1-5.3-5.4-8.6-6.8c-3.4-1.5-7.1-2.3-11.2-2.4
		c-4.1-0.2-8.5,0.1-13.1,0.8c-3.1,0.5-6.1,1.3-9,2.4c-3,1.1-5.6,2.7-7.8,4.7c-2.2,2-4,4.4-5.2,7c-1.2,2.7-1.6,5.9-1,9.6
		c0.5,3.4,1.6,6,3.2,7.9c1.6,1.9,4.5,3.4,8.5,4.6c4.1,1.2,9.6,2.1,16.6,2.8c7,0.7,16.1,1.6,27.3,2.6c3.3,0.1,8,0.6,14,1.4
		c6,0.8,12.1,2.6,18.3,5.4c6.2,2.8,11.9,7,17,12.6c5.1,5.6,8.4,13.2,9.9,22.9c1.3,7.9,0.9,15.5-1.1,22.7c-2,7.3-5.6,13.8-10.9,19.7
		c-5.3,5.9-12.2,10.9-20.7,15.1c-8.5,4.2-18.7,7.2-30.4,9c-9.5,1.5-18.9,1.8-28.3,0.9c-9.3-0.9-17.8-3.3-25.5-7.3
		c-7.6-3.9-14.1-9.4-19.4-16.5c-5.3-7.1-8.7-16-10.2-26.7l36.8-5.8C551.2,3673,553,3677.8,555.8,3681.5z"/>
</g>
<g class="st0">
	<path class="st1" d="M1028.1,3605.5l-37.2-3.9c1-10.8,3.9-19.9,8.8-27.3c4.9-7.4,11.1-13.3,18.6-17.6c7.5-4.3,15.9-7.2,25.2-8.6
		c9.3-1.4,18.8-1.6,28.4-0.6c11.9,1.3,22.2,3.8,31,7.5c8.8,3.7,15.9,8.4,21.5,14c5.6,5.6,9.6,12,12,19.2c2.4,7.2,3.1,14.8,2.3,22.8
		c-1,9.8-4,17.6-8.8,23.5c-4.8,5.8-10.3,10.3-16.4,13.5c-6.1,3.1-12.2,5.3-18.1,6.4c-6,1.1-10.6,1.8-14,2.1
		c-11.2,1.6-20.3,3-27.3,4.1c-7,1.1-12.5,2.3-16.5,3.7c-4,1.4-6.8,3.1-8.3,5.1c-1.5,2-2.5,4.7-2.8,8.1c-0.4,3.8,0.1,6.9,1.5,9.6
		c1.4,2.6,3.2,4.9,5.6,6.8c2.4,1.9,5.1,3.3,8.1,4.3c3,1,6.1,1.6,9.2,2c4.7,0.5,9.1,0.5,13.2,0.2c4.1-0.4,7.8-1.4,11.1-3
		c3.3-1.6,6.1-4.1,8.3-7.3c2.2-3.2,3.8-7.4,4.7-12.6l37.2,3.9c-1.1,10.1-3.9,18.5-8.5,25.2c-4.6,6.7-10.4,12-17.4,15.9
		c-7,3.9-14.8,6.4-23.4,7.5c-8.6,1.2-17.5,1.2-26.6,0.3c-7.8-0.8-15.6-2.7-23.2-5.7c-7.6-2.9-14.3-7-20-12
		c-5.7-5.1-10.2-11.1-13.3-18.1c-3.1-7-4.2-15-3.3-24c0.8-8,3.1-14.6,6.7-20c3.6-5.3,8.1-9.6,13.4-12.8c5.3-3.2,11.2-5.7,17.6-7.4
		c6.4-1.7,13-3,19.7-4c6.6-1.1,13-2.1,19.4-2.9c6.4-0.8,12.1-1.9,17.2-3.4c5.1-1.4,9.3-3.5,12.6-6.1c3.3-2.6,5.2-6.3,5.7-11
		c0.5-4.4-0.3-8.2-2.3-11.3c-2-3.1-4.6-5.6-7.9-7.6c-3.3-2-6.8-3.5-10.7-4.5c-3.9-1-7.5-1.7-10.9-2c-5.1-0.5-10-0.4-14.9,0.3
		c-4.9,0.7-9.2,2.2-13,4.3c-3.8,2.2-6.9,5.2-9.5,9C1030.3,3594.7,1028.8,3599.6,1028.1,3605.5z"/>
</g>
<g class="st0">
	<path class="st3" d="M1028.1,3605.5l-37.2-3.9c1-10.8,3.9-19.9,8.8-27.3c4.9-7.4,11.1-13.3,18.6-17.6c7.5-4.3,15.9-7.2,25.2-8.6
		c9.3-1.4,18.8-1.6,28.4-0.6c11.9,1.3,22.2,3.8,31,7.5c8.8,3.7,15.9,8.4,21.5,14c5.6,5.6,9.6,12,12,19.2c2.4,7.2,3.1,14.8,2.3,22.8
		c-1,9.8-4,17.6-8.8,23.5c-4.8,5.8-10.3,10.3-16.4,13.5c-6.1,3.1-12.2,5.3-18.1,6.4c-6,1.1-10.6,1.8-14,2.1
		c-11.2,1.6-20.3,3-27.3,4.1c-7,1.1-12.5,2.3-16.5,3.7c-4,1.4-6.8,3.1-8.3,5.1c-1.5,2-2.5,4.7-2.8,8.1c-0.4,3.8,0.1,6.9,1.5,9.6
		c1.4,2.6,3.2,4.9,5.6,6.8c2.4,1.9,5.1,3.3,8.1,4.3c3,1,6.1,1.6,9.2,2c4.7,0.5,9.1,0.5,13.2,0.2c4.1-0.4,7.8-1.4,11.1-3
		c3.3-1.6,6.1-4.1,8.3-7.3c2.2-3.2,3.8-7.4,4.7-12.6l37.2,3.9c-1.1,10.1-3.9,18.5-8.5,25.2c-4.6,6.7-10.4,12-17.4,15.9
		c-7,3.9-14.8,6.4-23.4,7.5c-8.6,1.2-17.5,1.2-26.6,0.3c-7.8-0.8-15.6-2.7-23.2-5.7c-7.6-2.9-14.3-7-20-12
		c-5.7-5.1-10.2-11.1-13.3-18.1c-3.1-7-4.2-15-3.3-24c0.8-8,3.1-14.6,6.7-20c3.6-5.3,8.1-9.6,13.4-12.8c5.3-3.2,11.2-5.7,17.6-7.4
		c6.4-1.7,13-3,19.7-4c6.6-1.1,13-2.1,19.4-2.9c6.4-0.8,12.1-1.9,17.2-3.4c5.1-1.4,9.3-3.5,12.6-6.1c3.3-2.6,5.2-6.3,5.7-11
		c0.5-4.4-0.3-8.2-2.3-11.3c-2-3.1-4.6-5.6-7.9-7.6c-3.3-2-6.8-3.5-10.7-4.5c-3.9-1-7.5-1.7-10.9-2c-5.1-0.5-10-0.4-14.9,0.3
		c-4.9,0.7-9.2,2.2-13,4.3c-3.8,2.2-6.9,5.2-9.5,9C1030.3,3594.7,1028.8,3599.6,1028.1,3605.5z"/>
</g>
<g id="Group_4" transform="translate(-622.058 -99.613)">
	<g id="Rectangle_6" transform="translate(776 337)">
		<g>
			<path class="st4" d="M476.7,3464.5h11c1.7,0,3,1.3,3,3v10c0,1.7-1.3,3-3,3h-11c-1.7,0-3-1.3-3-3v-10
				C473.7,3465.8,475,3464.5,476.7,3464.5z"/>
		</g>
		<g>
			<path class="st5" d="M487.7,3480.5h-11c-1.7,0-3-1.3-3-3v-10c0-1.7,1.3-3,3-3h11c1.7,0,3,1.3,3,3v10
				C490.7,3479.2,489.3,3480.5,487.7,3480.5z M476.7,3465.5c-1.1,0-2,0.9-2,2v10c0,1.1,0.9,2,2,2h11c1.1,0,2-0.9,2-2v-10
				c0-1.1-0.9-2-2-2H476.7z"/>
		</g>
	</g>
	<g id="Group_2" transform="translate(789.15 334.601)">
		<g id="Path_1">
			<path class="st6" d="M479.5,3464.9h314.8l61.7,7.9l-61.7,10.1H479.5V3464.9z"/>
			<path class="st5" d="M479.5,3483.3H479v-18.9h315.3l61.8,7.9l0,1l-61.7,10.1L479.5,3483.3z M480,3482.3h314.3l58.3-9.5l-58.3-7.4
				l-314.2,0V3482.3z"/>
		</g>
		<g id="Line_1">
			<rect x="473.7" y="3473.7" class="st5" width="322" height="1.3"/>
		</g>
		<g id="Path_2">
			<polygon class="st5" points="791.8,3486.6 791,3486 795.3,3480.8 790.5,3477.7 795.1,3474.5 790.4,3472.4 795.2,3468.7 
				791.4,3466.2 791.1,3465.9 791.7,3465.1 792.3,3465.6 796.9,3468.6 792.4,3472.2 797.1,3474.3 792.3,3477.7 796.8,3480.6 			"/>
		</g>
		<g id="Path_3">
			<path class="st7" d="M834.9,3481.5"/>
		</g>
		<g id="Line_2">
			<rect x="479" y="3467.7" class="st5" width="316.7" height="1.3"/>
		</g>
		<g id="Line_3">
			<rect x="478.7" y="3479.8" class="st5" width="317" height="1.3"/>
		</g>
		<g id="Path_4">
			<path class="st5" d="M833.2,3476.6l0.5-6.8l21.6,3L833.2,3476.6z"/>
		</g>
		<g id="Path_5">
			<path class="st8" d="M834.9,3476l0.4-5.7l18.2,2.5L834.9,3476z"/>
		</g>
	</g>
	<g id="Rectangle_5" transform="translate(786 335)">
		<g>
			<rect x="473.7" y="3464.5" class="st5" width="11" height="18"/>
		</g>
		<g>
			<path class="st8" d="M484.7,3482.5h-11v-18h11V3482.5z M474.7,3481.5h9v-16h-9V3481.5z"/>
		</g>
	</g>
</g>
<circle class="st9" cx="-2763.4" cy="1589.7" r="631.2"/>
<g id="PsdnG8.tif">
	<g>
		<path class="st10" d="M-3043.7,1522.4c-0.4,20.6,2.4,45.9,8.5,70.5c19.1,75.9,58.9,138.3,124.9,181.6c71.6,47,149.3,57,230.3,29.9
			c68.6-23,119.3-68.9,154.4-131.6c33.6-60.2,45.5-125.2,37.4-193.6c-7.6-64.9-32.4-122.4-76.4-171.1
			c-47.6-52.7-106.4-83.9-177.6-90.4c-47.7-4.4-93.2,4-136.2,24.8c-60,29.1-103.7,74.8-133.1,134.1
			C-3033.5,1420.9-3043.9,1468-3043.7,1522.4z M-3230.5,2008c245.7,280.7,690.4,279.3,934.2,7c-19.8-17.5-39.3-35.4-59.6-52.4
			c-24.6-20.6-51.9-37.5-80.5-51.9c-20.8-10.5-41.9-20.8-63.6-29.1c-26.3-10-53.2-19.1-80.4-26c-27.1-6.9-55-10.9-82.7-15.6
			c-13.7-2.3-27.5-3.6-41.3-4.9c-12.6-1.2-25.3-2.4-38-2.4c-24.9-0.1-49.9-0.1-74.8,1.4c-21.5,1.3-42.9,4.3-64.2,7.4
			c-17.7,2.6-35.4,5.8-53,9.6c-36.5,8-72.3,18.4-106.6,33.4c-25.3,11.1-50.7,22.5-74.6,36.3c-22.6,13-44,28.4-64.9,44.3
			C-3197.9,1978-3213.6,1993.3-3230.5,2008z"/>
		<path class="st10" d="M-3043.7,1522.4c-0.1-54.4,10.3-101.5,32.2-145.8c29.4-59.4,73.1-105.1,133.1-134.1
			c43-20.8,88.5-29.2,136.2-24.8c71.3,6.5,130,37.7,177.6,90.4c43.9,48.7,68.7,106.2,76.4,171.1c8.1,68.4-3.8,133.4-37.4,193.6
			c-35,62.8-85.8,108.7-154.4,131.6c-81.1,27.1-158.7,17.1-230.3-29.9c-66-43.3-105.8-105.7-124.9-181.6
			C-3041.4,1568.2-3044.2,1543-3043.7,1522.4z"/>
		<path class="st10" d="M-3230.5,2008c16.9-14.7,32.6-29.9,50-43.1c20.9-15.8,42.2-31.3,64.9-44.3c23.9-13.7,49.3-25.2,74.6-36.3
			c34.2-15,70.1-25.3,106.6-33.4c17.5-3.9,35.2-7.1,53-9.6c21.3-3.1,42.7-6.1,64.2-7.4c24.9-1.5,49.9-1.4,74.8-1.4
			c12.7,0,25.4,1.2,38,2.4c13.8,1.3,27.7,2.6,41.3,4.9c27.7,4.7,55.5,8.7,82.7,15.6c27.3,6.9,54.1,16,80.4,26
			c21.8,8.3,42.8,18.6,63.6,29.1c28.7,14.4,55.9,31.3,80.5,51.9c20.3,16.9,39.7,34.9,59.6,52.4
			C-2540.1,2287.3-2984.8,2288.6-3230.5,2008z"/>
	</g>
</g>
<g>
	<g>
		<defs>
			<rect id="SVGID_1_" x="297.7" y="33.3" width="901.3" height="1351.9"/>
		</defs>
		<clipPath id="SVGID_00000152245750328199693740000005340750512344997803_">
			<use xlink:href="#SVGID_1_"  style="overflow:visible;"/>
		</clipPath>
		<g id="Group_19" style="clip-path:url(#SVGID_00000152245750328199693740000005340750512344997803_);">
			<path id="Path_29" class="st8" d="M367.9,1072.8c6.9-4.3,10.8-6.3,14.3-8.8c33.2-22.8,66.1-46,99.6-68.4
				c7.3-4.2,11.6-12.2,10.9-20.6c-0.4-51.7-0.3-103.5,0-155.2c0-9.7-4.1-24.3,11-24.9c16.2-0.6,11.5,14.4,11.5,23.8
				c0.2,162.2,0.3,324.4,0.2,486.6c0,27.9,12.8,42.7,38.3,42.8c124.9,0.3,249.7,0.4,374.6,0.4c19.1,1.6,35.9-12.5,37.6-31.6
				c0.2-1.8,0.2-3.6,0-5.4c0.3-29.9-0.4-59.7-0.1-89.5c0.8-6.9-3.4-13.4-10-15.7c-14-6.4-27.1-14.5-39.2-24
				c-60.2-50.5-104.4-117.4-127.2-192.6c-1.8-8.6-8.3-15.5-16.7-17.8c-48.3-16.8-73.9-69.6-57.1-118c9.5-27.5,31.4-48.9,59.1-57.8
				c9.6-3.2,11.2-7.9,11.3-17.1c0.5-55.7,1.3-111.4,2.8-167c0.9-31.6,3.3-63.2,5.1-96.3h-16.6c-75.6,0-151.2-0.2-226.8,0
				c-105.9,0.3-182.5,77-182.6,182.8c-0.1,117.4-0.1,234.8-0.1,352.2C367.9,1056.8,367.9,1063.2,367.9,1072.8 M740,435.3
				c111,0.1,201.1-89.8,201.2-200.9c0.1-111-89.8-201.1-200.9-201.2s-201.1,89.8-201.2,200.9c0,0.4,0,0.9,0,1.3
				C539.9,345.9,629.6,435.2,740,435.3 M987.8,838.8c-1.7-6.9-2.6-11.1-3.8-15.1c-13.1-43.3-26.3-86.5-39.4-129.8
				c-1.9-4-2.8-8.5-2.7-12.9c0.9-4.5,3.8-8.4,7.9-10.5c4.6-0.1,9.1,1.8,12.3,5.2c2.5,2.4,2.8,7.2,4,11c14.2,46.6,28.9,93,42.1,139.9
				c4.1,14.5,10.4,23.2,25.8,25.6c10.8,1.6,21.4,4.7,31.4,9.2c5,2.3,11.2,9.5,10.8,13.9c-0.9,9.8-9.4,9.5-17.3,7.2
				c-1.9-0.6-3.8-1-5.7-1.6c-76.5-21.6-152.8-43.9-229.7-64.3c-14.4-3.4-29.4-2.9-43.6,1.5c-29.5,9.6-48.6,38.1-46.4,69
				c1.3,31.8,22.6,56.7,56.8,66.5c104.2,29.6,208.5,58.9,312.6,88.8c28.9,8.3,54.5,4,75.7-17.4c20.9-21.1,24.4-46.4,15.8-74.5
				c-31.9-104-62.8-208.4-95.2-312.3c-15.3-51.6-54.4-92.7-105.2-110.5c-19.4-6.1-39.2-10.9-59.2-14.5c-1,8-1.7,11.9-1.9,15.8
				c-2.5,54.7-6,109.3-6.9,164c-0.7,39.2,1.9,78.5,3.5,117.8c0.2,4.3,2.4,11.1,5.3,12.1C951.3,828.9,968.5,833.3,987.8,838.8
				 M903.3,814.6c0-23.4-0.5-44.7,0.1-65.9c2-76.5,4.2-153,6.7-229.4c0.6-20.1-9.8-32-29.8-33c-9.4-0.5-18.9-0.2-28.4-0.1
				c-22.4,0.3-33.9,11.3-35.1,33.5c-2.5,44.7-6,89.3-7.2,134c-1.2,45.1-0.3,90.2-0.3,135.2L903.3,814.6 M363.2,1376.4
				c4.7-3.1,8-5,11-7.3c35-27.1,69.8-54.4,105.1-81.1c7.4-5,11.7-13.5,11.2-22.5c0.1-53.2,0.9-106.4,1.4-159.7
				c0-3.2-0.5-6.5-0.9-11.3c-5.2,3.2-9,5.2-12.6,7.6c-33.6,22.2-66.9,44.9-100.9,66.5c-10.6,5.9-16.7,17.4-15.8,29.4
				c0.5,55.2,0.1,110.4,0.2,165.6C361.9,1367.3,362.6,1371,363.2,1376.4 M758.2,492.3c21.3-0.3,39.2,5.6,53.9-13.7
				c6.4-8.4,21.2-11.9,32.8-14.2c12.4-1.4,24.8-1.6,37.2-0.6c15.2-0.5,29.8,6.5,38.9,18.7c5.2,7.3,13.7,11.4,22.6,11.1
				c40,2.3,78.4,16.8,109.8,41.6c3.8,2.9,7.8,5.6,11.9,8.5c28.3-40.5,70.7-47.2,115.1-53c-20.3-28.4-47.3-46.4-82.1-46.8
				c-85.5-1.2-171.1-1.2-256.7,0C807.4,444.3,780.2,461.2,758.2,492.3 M810.3,982.9c17,55.5,46.7,106.2,86.6,148.3
				c19.1,20,40.7,37.5,64.3,52c23.7,14.5,44.2,0.8,46.1-27c0.4-6.4-0.6-13,0.4-19.3c2.9-18.1-5.5-29-20.7-37
				c-34.7-18.9-62.6-48.1-80.1-83.5c-1.5-3.5-4.2-6.4-7.6-8.1C870.9,999.8,842.3,992,810.3,982.9 M339.1,1385.1c0-7.4,0-12.7,0-18
				c0-56.7,0.5-113.4-0.2-170.1c-1.2-19.2,8.6-37.5,25.3-47c39.8-25.5,79-51.8,118.2-78.1c4.1-2.8,9.2-7.5,9.6-11.7
				c1.2-13.7,0.5-27.5,0.5-42c-1.9,0.2-3.9,0.7-5.7,1.4c-57.7,39.8-115.7,79.2-172.7,119.9c-7.9,6.6-12.8,16.1-13.6,26.3
				c-1.9,64.7-2.3,129.3-2.8,194c0.2,4.6,2.6,8.8,6.3,11.5C314.6,1376.5,325.9,1380.1,339.1,1385.1 M1147,717.3
				c16.3-4.4,30.8-7.7,44.8-12.4c3.8-2.3,6.3-6.3,6.7-10.7c0.4-48.2,0.5-96.5,0.1-144.7c-0.1-16.5-15.4-35.6-29.6-33.9
				c-30,3.6-60.1,9.2-80.7,35.4c-5.3,6.8-5,11.3-0.4,19.3c13.4,22.5,25.2,45.9,35.2,70C1132.9,664.7,1138.8,690.4,1147,717.3
				 M1084.1,1059.9c1.3,12.4,3.3,24.6,5.9,36.8c5.1,18.7,14.6,24,34.4,22.6c24-1.4,46.8-10.7,65-26.5c4.5-3.6,7.7-8.6,9-14.3
				c0.8-13.3,1-26.6,0.4-39.9C1165,1070.5,1128.4,1076.4,1084.1,1059.9 M1031.4,1124.7l40.3-2.5c-3.1-21-5.9-40.4-9.1-59.7
				c-0.6-3.3-2.6-8.4-5-9.2c-22.5-6.9-45.2-13.1-69.6-19.9c-0.6,10.2-0.5,20.5,0.4,30.7c0.9,5.9,4,11.3,8.8,14.9
				C1014.5,1089.4,1028,1102.2,1031.4,1124.7 M1195.8,877.5l2-0.1V727.3l-44,12.3L1195.8,877.5 M1028.6,1176
				c42.3-6.5,82.1-11.6,121.4-19c20-3.7,36.4-18,42.9-37.3c-51.7,32.4-108.2,21.1-162.6,28.6L1028.6,1176 M963.9,1056.1
				c3.4-29-7.2-40.4-28-32.9L963.9,1056.1"/>
			<path id="Path_30" class="st8" d="M367.9,1072.7v-22.3c0-117.4,0-234.8,0-352.2c0.1-105.8,76.6-182.5,182.6-182.8
				c75.6-0.2,151.2,0,226.8,0H794c-1.8,33.1-4.3,64.7-5.1,96.3c-1.5,55.7-2.4,111.4-2.8,167c-0.1,9.2-1.7,13.9-11.3,17.1
				c-48.7,15.7-75.5,67.9-59.8,116.6c8.9,27.7,30.3,49.6,57.8,59.1c8.4,2.4,14.9,9.3,16.7,17.9c22.7,75.2,66.9,142.2,127.2,192.6
				c12.1,9.5,25.3,17.6,39.2,24c6.6,2.3,10.7,8.8,10,15.7c-0.3,29.8,0.4,59.7,0.1,89.5c1.4,19.1-13,35.8-32.2,37.1
				c-1.8,0.1-3.6,0.1-5.4,0c-124.9,0.1-249.7-0.1-374.6-0.4c-25.4-0.1-38.3-14.8-38.3-42.8c0-162.2-0.1-324.4-0.2-486.6
				c0-9.5,4.7-24.4-11.5-23.8c-15.1,0.6-11,15.2-11,24.9c-0.3,51.7-0.4,103.5,0,155.2c0.7,8.4-3.5,16.5-10.9,20.6
				c-33.5,22.4-66.4,45.6-99.6,68.4C378.6,1066.5,374.8,1068.6,367.9,1072.7"/>
			<path id="Path_31" class="st8" d="M740.1,435.3c-111-0.4-200.7-90.7-200.4-201.7c0.4-111,90.7-200.7,201.7-200.4
				c110.3,0.4,199.7,89.6,200.4,199.9c0.6,111-88.9,201.6-199.9,202.2C741.3,435.3,740.7,435.3,740.1,435.3"/>
			<path id="Path_32" class="st8" d="M987.8,838.8c-19.3-5.6-36.4-10-53.1-15.8c-2.9-1-5.1-7.9-5.3-12.1
				c-1.6-39.3-4.3-78.6-3.5-117.8c0.9-54.7,4.4-109.3,6.9-164c0.2-3.9,0.9-7.7,1.9-15.8c20,3.6,39.8,8.4,59.2,14.5
				c50.8,17.8,89.9,58.9,105.2,110.5c32.4,103.9,63.3,208.2,95.2,312.3c8.6,28.1,5.1,53.4-15.8,74.5c-21.2,21.4-46.8,25.6-75.7,17.4
				c-104.1-29.9-208.4-59.2-312.6-88.8c-34.3-9.7-55.5-34.6-56.8-66.5c-2.2-30.9,16.9-59.4,46.4-69c14.1-4.3,29.2-4.8,43.6-1.5
				c76.8,20.4,153.1,42.7,229.7,64.3c1.9,0.5,3.8,1,5.7,1.6c7.9,2.3,16.4,2.7,17.3-7.2c0.4-4.4-5.9-11.6-10.8-13.9
				c-10-4.5-20.5-7.6-31.4-9.2c-15.5-2.4-21.7-11.1-25.8-25.6c-13.2-46.9-27.9-93.3-42.1-139.9c-1.2-3.8-1.5-8.6-4-11
				c-3.2-3.4-7.6-5.3-12.3-5.2c-4.1,2.1-7,6-7.9,10.5c-0.1,4.5,0.9,8.9,2.7,12.9c13.1,43.3,26.2,86.5,39.4,129.8
				C985.3,827.8,986.1,831.9,987.8,838.8"/>
			<path id="Path_33" class="st8" d="M903.3,814.6l-94-25.7c0-45-1-90.2,0.3-135.2c1.2-44.7,4.7-89.3,7.2-134
				c1.2-22.2,12.7-33.2,35.1-33.5c9.4-0.1,18.9-0.4,28.4,0.1c20,1,30.4,12.9,29.8,33c-2.3,76.5-4.5,153-6.7,229.4
				C902.9,769.9,903.4,791.2,903.3,814.6"/>
			<path id="Path_34" class="st8" d="M363.3,1376.4c-0.6-5.4-1.4-9.1-1.4-12.8c0-55.2,0.3-110.4-0.2-165.6c-1-12,5.2-23.5,15.8-29.4
				c34-21.6,67.3-44.3,100.9-66.5c3.6-2.4,7.4-4.5,12.6-7.6c0.4,4.9,0.9,8.1,0.9,11.3c-0.5,53.2-1.3,106.4-1.4,159.7
				c0.5,8.9-3.8,17.5-11.2,22.5c-35.2,26.8-70.1,54.1-105.1,81.1C371.2,1371.4,367.9,1373.3,363.3,1376.4 M404,1236.2
				c0,15.8-0.9,31.7,0.5,47.5c0.5,5.1,6.8,9.7,10.4,14.6c3.7-4.8,10.5-9.5,10.6-14.4c1-30.7,0.5-61.3,0.6-92
				c0-8.1-3.2-14.9-11.6-13.1c-5.3,2.4-9,7.3-10,13C403.2,1206.4,404,1221.4,404,1236.2"/>
			<path id="Path_35" class="st8" d="M758.2,492.3c22-31.1,49.2-48,83.4-48.5c85.5-1.2,171.1-1.2,256.7,0
				c34.8,0.5,61.7,18.4,82.1,46.8c-44.3,5.8-86.8,12.5-115.1,53c-4.1-2.9-8.1-5.6-11.9-8.5c-31.5-24.8-69.8-39.4-109.8-41.6
				c-8.9,0.3-17.4-3.8-22.6-11.1c-9.1-12.3-23.6-19.3-38.9-18.7c-12.4-1-24.9-0.8-37.2,0.6c-11.7,2.3-26.5,5.9-32.8,14.2
				C797.4,497.9,779.4,492.1,758.2,492.3"/>
			<path id="Path_36" class="st8" d="M810.3,983c32,9,60.5,16.9,88.9,25.4c3.4,1.7,6.1,4.6,7.6,8.1c17.5,35.4,45.4,64.6,80.1,83.5
				c15.2,8,23.6,19,20.7,37c-1,6.3,0,12.9-0.4,19.3c-1.8,27.8-22.3,41.5-46.1,27c-23.6-14.5-45.2-32-64.3-52
				C856.9,1089.2,827.3,1038.4,810.3,983"/>
			<path id="Path_37" class="st8" d="M339.1,1385.1c-13.2-5-24.5-8.6-35-13.7c-3.8-2.7-6.1-6.9-6.3-11.5
				c0.4-64.6,0.8-129.3,2.8-193.9c0.8-10.3,5.7-19.8,13.6-26.3c57-40.8,115-80.2,172.7-119.9c1.8-0.7,3.7-1.2,5.7-1.4
				c0,14.5,0.8,28.3-0.5,42c-0.4,4.2-5.5,8.9-9.6,11.7c-39.2,26.3-78.4,52.7-118.2,78.1c-16.7,9.6-26.5,27.8-25.3,47
				c0.7,56.7,0.2,113.4,0.2,170.1C339.1,1372.5,339.1,1377.8,339.1,1385.1"/>
			<path id="Path_38" class="st8" d="M1147,717.3c-8.1-26.9-14.1-52.7-23.7-77c-10-24.2-21.8-47.6-35.2-70c-4.6-8-5-12.5,0.4-19.3
				c20.6-26.2,50.7-31.8,80.7-35.4c14.2-1.7,29.4,17.4,29.6,33.9c0.3,48.2,0.3,96.5-0.1,144.7c-0.4,4.5-2.9,8.5-6.7,10.7
				C1177.8,709.6,1163.3,712.9,1147,717.3"/>
			<path id="Path_39" class="st8" d="M1084.1,1059.9c44.2,16.5,80.9,10.6,114.6-21.3c0.5,13.3,0.4,26.6-0.4,39.9
				c-1.3,5.6-4.4,10.7-9,14.3c-18.2,15.8-41,25.1-65,26.5c-19.8,1.4-29.2-3.9-34.4-22.6C1087.4,1084.6,1085.5,1072.3,1084.1,1059.9"
				/>
			<path id="Path_40" class="st8" d="M1031.4,1124.8c-3.4-22.6-16.9-35.4-34.3-45.7c-4.7-3.6-7.9-9-8.8-14.9
				c-0.9-10.2-1-20.5-0.4-30.7c24.4,6.9,47.1,13,69.6,19.9c2.4,0.7,4.4,5.8,5,9.2c3.2,19.3,6,38.7,9.1,59.7L1031.4,1124.8"/>
			<path id="Path_41" class="st8" d="M1195.8,877.5l-42-137.9l44-12.3v150.1L1195.8,877.5"/>
			<path id="Path_42" class="st8" d="M1028.6,1176c0.8-12.6,1.2-19.8,1.7-27.7c54.4-7.5,110.8,3.8,162.6-28.6
				c-6.5,19.3-22.9,33.6-42.9,37.3C1110.7,1164.5,1070.9,1169.5,1028.6,1176"/>
			<path id="Path_43" class="st8" d="M963.9,1056.2l-27.9-32.9C956.7,1015.8,967.4,1027.1,963.9,1056.2"/>
			<path id="Path_44" class="st8" d="M404,1236.2c0-14.8-0.8-29.8,0.5-44.5c1-5.7,4.8-10.6,10-13c8.4-1.8,11.6,5.1,11.6,13.1
				c-0.1,30.7,0.4,61.4-0.6,92c-0.2,4.9-6.9,9.6-10.6,14.4c-3.6-4.8-10-9.4-10.4-14.6C403.2,1267.9,404,1252,404,1236.2"/>
		</g>
	</g>
</g>
</svg>
