<?xml version="1.0" encoding="utf-8"?>
<!-- Generator: Adobe Illustrator 27.2.0, SVG Export Plug-In . SVG Version: 6.00 Build 0)  -->
<svg version="1.1" id="Laag_1" xmlns="http://www.w3.org/2000/svg" xmlns:xlink="http://www.w3.org/1999/xlink" x="0px" y="0px"
	 viewBox="0 0 699.2 266.5" style="enable-background:new 0 0 699.2 266.5;" xml:space="preserve">
<style type="text/css">
	.st0{enable-background:new    ;}
	.st1{fill:#774CBC;}
	.st2{fill:none;stroke:#FFFFFF;stroke-width:5;}
	.st3{fill:none;stroke:#FFFFFF;stroke-width:3.0016;stroke-miterlimit:4.0021;}
	.st4{fill:#C4B8DD;}
	.st5{fill:#FFFFFF;}
	.st6{fill:#9371C9;}
	.st7{fill:none;stroke:#FFFFFF;stroke-width:2;}
	.st8{fill:#714EB6;}
</style>
<g class="st0">
	<path class="st1" d="M160.1,80.5V56h108.8v24.6h-39.8v108.3h-29.2V80.5H160.1z"/>
	<path class="st1" d="M381.8,178.6c-10,8.7-23.9,13.1-41.7,13.1c-18,0-31.9-4.3-41.8-13c-9.9-8.7-14.8-22.1-14.8-40.2V56h29.2v82.6
		c0,3.6,0.3,7.1,0.9,10.6c0.6,3.5,1.9,6.5,3.9,9.2c2,2.7,4.7,4.8,8.3,6.5c3.5,1.7,8.3,2.5,14.2,2.5c10.4,0,17.6-2.3,21.6-7
		c4-4.6,6-11.9,6-21.9V56h29.2v82.6C396.9,156.5,391.8,169.9,381.8,178.6z"/>
	<path class="st1" d="M479.3,56c8.6,0,16.5,1.4,23.9,4.1c7.4,2.7,13.8,6.8,19.2,12.3c5.4,5.5,9.6,12.3,12.6,20.5
		c3,8.2,4.6,17.8,4.6,28.8c0,9.7-1.2,18.6-3.7,26.8c-2.5,8.2-6.2,15.3-11.3,21.2s-11.3,10.6-18.8,14c-7.5,3.4-16.3,5.1-26.5,5.1H422
		V56H479.3z M477.2,164.2c4.2,0,8.3-0.7,12.3-2c4-1.4,7.5-3.6,10.6-6.8c3.1-3.2,5.6-7.3,7.4-12.4c1.9-5.1,2.8-11.3,2.8-18.6
		c0-6.7-0.7-12.7-2-18.1c-1.3-5.4-3.4-10-6.4-13.9c-3-3.8-6.9-6.8-11.8-8.8c-4.9-2-10.9-3.1-18.1-3.1h-20.8v83.7H477.2z"/>
</g>
<g class="st0">
	<path class="st1" d="M89.8,179.4c2.7,3.7,6,6.5,9.9,8.5c3.9,2,8.2,3.2,13.1,3.6c4.9,0.5,9.8,0.3,14.8-0.5c3.4-0.5,7-1.4,10.8-2.6
		c3.8-1.2,7.2-2.8,10.4-5c3.1-2.1,5.6-4.8,7.4-8c1.8-3.2,2.4-6.9,1.7-11.3c-0.7-4.7-2.8-8.2-6.3-10.7c-3.4-2.4-7.7-4.2-12.9-5.4
		c-5.1-1.2-10.9-2-17.3-2.5c-6.4-0.5-12.8-1.1-19.4-1.9c-6.7-0.6-13.3-1.6-19.8-2.9c-6.5-1.4-12.5-3.5-17.9-6.5
		c-5.4-2.9-10.1-7-13.9-12.1c-3.9-5.1-6.4-11.6-7.7-19.5c-1.4-8.9-0.7-16.9,2-24C47.5,71.6,51.6,65.4,57,60
		c5.4-5.3,11.9-9.6,19.3-13c7.4-3.3,15-5.6,22.7-6.8c9-1.4,17.9-1.8,26.5-1.1c8.6,0.7,16.5,2.8,23.7,6.3c7.2,3.5,13.2,8.5,18.1,14.9
		c4.9,6.4,8.1,14.6,9.7,24.6l-36.8,5.8c-1.1-5.1-2.9-9.2-5.3-12.3c-2.4-3.1-5.3-5.4-8.6-6.8c-3.4-1.5-7.1-2.3-11.2-2.4
		c-4.1-0.2-8.5,0.1-13.1,0.8c-3.1,0.5-6.1,1.3-9,2.4c-3,1.1-5.6,2.7-7.8,4.7c-2.2,2-4,4.4-5.2,7c-1.2,2.7-1.6,5.9-1,9.6
		c0.5,3.4,1.6,6,3.2,7.9c1.6,1.9,4.5,3.4,8.5,4.6c4.1,1.2,9.6,2.1,16.6,2.8c7,0.7,16.1,1.6,27.3,2.6c3.3,0.1,8,0.6,14,1.4
		c6,0.8,12.1,2.6,18.3,5.4c6.2,2.8,11.9,7,17,12.6c5.1,5.6,8.4,13.2,9.9,22.9c1.3,7.9,0.9,15.5-1.1,22.7c-2,7.3-5.6,13.8-10.9,19.7
		c-5.3,5.9-12.2,10.9-20.7,15.1c-8.5,4.2-18.7,7.2-30.4,9c-9.5,1.5-18.9,1.8-28.3,0.9c-9.3-0.9-17.8-3.3-25.5-7.3
		c-7.6-3.9-14.1-9.4-19.4-16.5c-5.3-7.1-8.7-16-10.2-26.7l36.8-5.8C85.3,170.9,87.1,175.7,89.8,179.4z"/>
</g>
<g class="st0">
	<path class="st2" d="M89.8,179.4c2.7,3.7,6,6.5,9.9,8.5c3.9,2,8.2,3.2,13.1,3.6c4.9,0.5,9.8,0.3,14.8-0.5c3.4-0.5,7-1.4,10.8-2.6
		c3.8-1.2,7.2-2.8,10.4-5c3.1-2.1,5.6-4.8,7.4-8c1.8-3.2,2.4-6.9,1.7-11.3c-0.7-4.7-2.8-8.2-6.3-10.7c-3.4-2.4-7.7-4.2-12.9-5.4
		c-5.1-1.2-10.9-2-17.3-2.5c-6.4-0.5-12.8-1.1-19.4-1.9c-6.7-0.6-13.3-1.6-19.8-2.9c-6.5-1.4-12.5-3.5-17.9-6.5
		c-5.4-2.9-10.1-7-13.9-12.1c-3.9-5.1-6.4-11.6-7.7-19.5c-1.4-8.9-0.7-16.9,2-24C47.5,71.6,51.6,65.4,57,60
		c5.4-5.3,11.9-9.6,19.3-13c7.4-3.3,15-5.6,22.7-6.8c9-1.4,17.9-1.8,26.5-1.1c8.6,0.7,16.5,2.8,23.7,6.3c7.2,3.5,13.2,8.5,18.1,14.9
		c4.9,6.4,8.1,14.6,9.7,24.6l-36.8,5.8c-1.1-5.1-2.9-9.2-5.3-12.3c-2.4-3.1-5.3-5.4-8.6-6.8c-3.4-1.5-7.1-2.3-11.2-2.4
		c-4.1-0.2-8.5,0.1-13.1,0.8c-3.1,0.5-6.1,1.3-9,2.4c-3,1.1-5.6,2.7-7.8,4.7c-2.2,2-4,4.4-5.2,7c-1.2,2.7-1.6,5.9-1,9.6
		c0.5,3.4,1.6,6,3.2,7.9c1.6,1.9,4.5,3.4,8.5,4.6c4.1,1.2,9.6,2.1,16.6,2.8c7,0.7,16.1,1.6,27.3,2.6c3.3,0.1,8,0.6,14,1.4
		c6,0.8,12.1,2.6,18.3,5.4c6.2,2.8,11.9,7,17,12.6c5.1,5.6,8.4,13.2,9.9,22.9c1.3,7.9,0.9,15.5-1.1,22.7c-2,7.3-5.6,13.8-10.9,19.7
		c-5.3,5.9-12.2,10.9-20.7,15.1c-8.5,4.2-18.7,7.2-30.4,9c-9.5,1.5-18.9,1.8-28.3,0.9c-9.3-0.9-17.8-3.3-25.5-7.3
		c-7.6-3.9-14.1-9.4-19.4-16.5c-5.3-7.1-8.7-16-10.2-26.7l36.8-5.8C85.3,170.9,87.1,175.7,89.8,179.4z"/>
</g>
<g class="st0">
	<path class="st1" d="M563.2,103.4L526,99.4c1-10.8,3.9-19.9,8.8-27.3c4.9-7.4,11.1-13.3,18.6-17.6c7.5-4.3,15.9-7.2,25.2-8.6
		c9.3-1.4,18.8-1.6,28.4-0.6c11.9,1.3,22.2,3.8,31,7.5c8.8,3.7,15.9,8.4,21.5,14c5.6,5.6,9.6,12,12,19.2c2.4,7.2,3.1,14.8,2.3,22.8
		c-1,9.8-4,17.6-8.8,23.5c-4.8,5.8-10.3,10.3-16.4,13.5c-6.1,3.1-12.2,5.3-18.1,6.4c-6,1.1-10.6,1.8-14,2.1
		c-11.2,1.6-20.3,3-27.3,4.1c-7,1.1-12.5,2.3-16.5,3.7c-4,1.4-6.8,3.1-8.3,5.1c-1.5,2-2.5,4.7-2.8,8.1c-0.4,3.8,0.1,6.9,1.5,9.6
		c1.4,2.6,3.2,4.9,5.6,6.8c2.4,1.9,5,3.3,8.1,4.3c3,1,6.1,1.6,9.2,2c4.7,0.5,9.1,0.5,13.2,0.2c4.1-0.4,7.8-1.4,11.1-3
		c3.3-1.6,6.1-4.1,8.3-7.3c2.2-3.2,3.8-7.4,4.7-12.6l37.2,3.9c-1.1,10.1-3.9,18.5-8.5,25.2c-4.6,6.7-10.4,12-17.4,15.9
		c-7,3.9-14.8,6.4-23.4,7.5c-8.6,1.2-17.5,1.2-26.6,0.3c-7.8-0.8-15.6-2.7-23.2-5.7c-7.6-2.9-14.3-7-20-12
		c-5.7-5.1-10.2-11.1-13.3-18.1c-3.1-7-4.2-15-3.3-24c0.8-8,3.1-14.6,6.7-20c3.6-5.3,8.1-9.6,13.4-12.8c5.3-3.2,11.2-5.7,17.6-7.4
		c6.4-1.7,13-3,19.7-4c6.6-1.1,13-2.1,19.4-2.9c6.4-0.8,12.1-1.9,17.2-3.4c5.1-1.4,9.3-3.5,12.6-6.1c3.3-2.6,5.2-6.3,5.7-11
		c0.5-4.4-0.3-8.2-2.3-11.3c-2-3.1-4.6-5.6-7.9-7.6c-3.3-2-6.8-3.5-10.7-4.5c-3.9-1-7.5-1.7-10.9-2c-5.1-0.5-10-0.4-14.9,0.3
		c-4.9,0.7-9.2,2.2-13,4.3c-3.8,2.2-6.9,5.2-9.5,9C565.4,92.6,563.8,97.5,563.2,103.4z"/>
</g>
<g class="st0">
	<path class="st3" d="M563.2,103.4L526,99.4c1-10.8,3.9-19.9,8.8-27.3c4.9-7.4,11.1-13.3,18.6-17.6c7.5-4.3,15.9-7.2,25.2-8.6
		c9.3-1.4,18.8-1.6,28.4-0.6c11.9,1.3,22.2,3.8,31,7.5c8.8,3.7,15.9,8.4,21.5,14c5.6,5.6,9.6,12,12,19.2c2.4,7.2,3.1,14.8,2.3,22.8
		c-1,9.8-4,17.6-8.8,23.5c-4.8,5.8-10.3,10.3-16.4,13.5c-6.1,3.1-12.2,5.3-18.1,6.4c-6,1.1-10.6,1.8-14,2.1
		c-11.2,1.6-20.3,3-27.3,4.1c-7,1.1-12.5,2.3-16.5,3.7c-4,1.4-6.8,3.1-8.3,5.1c-1.5,2-2.5,4.7-2.8,8.1c-0.4,3.8,0.1,6.9,1.5,9.6
		c1.4,2.6,3.2,4.9,5.6,6.8c2.4,1.9,5,3.3,8.1,4.3c3,1,6.1,1.6,9.2,2c4.7,0.5,9.1,0.5,13.2,0.2c4.1-0.4,7.8-1.4,11.1-3
		c3.3-1.6,6.1-4.1,8.3-7.3c2.2-3.2,3.8-7.4,4.7-12.6l37.2,3.9c-1.1,10.1-3.9,18.5-8.5,25.2c-4.6,6.7-10.4,12-17.4,15.9
		c-7,3.9-14.8,6.4-23.4,7.5c-8.6,1.2-17.5,1.2-26.6,0.3c-7.8-0.8-15.6-2.7-23.2-5.7c-7.6-2.9-14.3-7-20-12
		c-5.7-5.1-10.2-11.1-13.3-18.1c-3.1-7-4.2-15-3.3-24c0.8-8,3.1-14.6,6.7-20c3.6-5.3,8.1-9.6,13.4-12.8c5.3-3.2,11.2-5.7,17.6-7.4
		c6.4-1.7,13-3,19.7-4c6.6-1.1,13-2.1,19.4-2.9c6.4-0.8,12.1-1.9,17.2-3.4c5.1-1.4,9.3-3.5,12.6-6.1c3.3-2.6,5.2-6.3,5.7-11
		c0.5-4.4-0.3-8.2-2.3-11.3c-2-3.1-4.6-5.6-7.9-7.6c-3.3-2-6.8-3.5-10.7-4.5c-3.9-1-7.5-1.7-10.9-2c-5.1-0.5-10-0.4-14.9,0.3
		c-4.9,0.7-9.2,2.2-13,4.3c-3.8,2.2-6.9,5.2-9.5,9C565.4,92.6,563.8,97.5,563.2,103.4z"/>
</g>
<g class="st0">
	<path class="st1" d="M160.1,80.5V56h108.8v24.6h-39.8v108.3h-29.2V80.5H160.1z"/>
	<path class="st1" d="M381.8,178.6c-10,8.7-23.9,13.1-41.7,13.1c-18,0-31.9-4.3-41.8-13c-9.9-8.7-14.8-22.1-14.8-40.2V56h29.2v82.6
		c0,3.6,0.3,7.1,0.9,10.6c0.6,3.5,1.9,6.5,3.9,9.2c2,2.7,4.7,4.8,8.3,6.5c3.5,1.7,8.3,2.5,14.2,2.5c10.4,0,17.6-2.3,21.6-7
		c4-4.6,6-11.9,6-21.9V56h29.2v82.6C396.9,156.5,391.8,169.9,381.8,178.6z"/>
	<path class="st1" d="M479.3,56c8.6,0,16.5,1.4,23.9,4.1c7.4,2.7,13.8,6.8,19.2,12.3c5.4,5.5,9.6,12.3,12.6,20.5
		c3,8.2,4.6,17.8,4.6,28.8c0,9.7-1.2,18.6-3.7,26.8c-2.5,8.2-6.2,15.3-11.3,21.2s-11.3,10.6-18.8,14c-7.5,3.4-16.3,5.1-26.5,5.1H422
		V56H479.3z M477.2,164.2c4.2,0,8.3-0.7,12.3-2c4-1.4,7.5-3.6,10.6-6.8c3.1-3.2,5.6-7.3,7.4-12.4c1.9-5.1,2.8-11.3,2.8-18.6
		c0-6.7-0.7-12.7-2-18.1c-1.3-5.4-3.4-10-6.4-13.9c-3-3.8-6.9-6.8-11.8-8.8c-4.9-2-10.9-3.1-18.1-3.1h-20.8v83.7H477.2z"/>
</g>
<g class="st0">
	<path class="st1" d="M89.8,179.4c2.7,3.7,6,6.5,9.9,8.5c3.9,2,8.2,3.2,13.1,3.6c4.9,0.5,9.8,0.3,14.8-0.5c3.4-0.5,7-1.4,10.8-2.6
		c3.8-1.2,7.2-2.8,10.4-5c3.1-2.1,5.6-4.8,7.4-8c1.8-3.2,2.4-6.9,1.7-11.3c-0.7-4.7-2.8-8.2-6.3-10.7c-3.4-2.4-7.7-4.2-12.9-5.4
		c-5.1-1.2-10.9-2-17.3-2.5c-6.4-0.5-12.8-1.1-19.4-1.9c-6.7-0.6-13.3-1.6-19.8-2.9c-6.5-1.4-12.5-3.5-17.9-6.5
		c-5.4-2.9-10.1-7-13.9-12.1c-3.9-5.1-6.4-11.6-7.7-19.5c-1.4-8.9-0.7-16.9,2-24C47.5,71.6,51.6,65.4,57,60
		c5.4-5.3,11.9-9.6,19.3-13c7.4-3.3,15-5.6,22.7-6.8c9-1.4,17.9-1.8,26.5-1.1c8.6,0.7,16.5,2.8,23.7,6.3c7.2,3.5,13.2,8.5,18.1,14.9
		c4.9,6.4,8.1,14.6,9.7,24.6l-36.8,5.8c-1.1-5.1-2.9-9.2-5.3-12.3c-2.4-3.1-5.3-5.4-8.6-6.8c-3.4-1.5-7.1-2.3-11.2-2.4
		c-4.1-0.2-8.5,0.1-13.1,0.8c-3.1,0.5-6.1,1.3-9,2.4c-3,1.1-5.6,2.7-7.8,4.7c-2.2,2-4,4.4-5.2,7c-1.2,2.7-1.6,5.9-1,9.6
		c0.5,3.4,1.6,6,3.2,7.9c1.6,1.9,4.5,3.4,8.5,4.6c4.1,1.2,9.6,2.1,16.6,2.8c7,0.7,16.1,1.6,27.3,2.6c3.3,0.1,8,0.6,14,1.4
		c6,0.8,12.1,2.6,18.3,5.4c6.2,2.8,11.9,7,17,12.6c5.1,5.6,8.4,13.2,9.9,22.9c1.3,7.9,0.9,15.5-1.1,22.7c-2,7.3-5.6,13.8-10.9,19.7
		c-5.3,5.9-12.2,10.9-20.7,15.1c-8.5,4.2-18.7,7.2-30.4,9c-9.5,1.5-18.9,1.8-28.3,0.9c-9.3-0.9-17.8-3.3-25.5-7.3
		c-7.6-3.9-14.1-9.4-19.4-16.5c-5.3-7.1-8.7-16-10.2-26.7l36.8-5.8C85.3,170.9,87.1,175.7,89.8,179.4z"/>
</g>
<g class="st0">
	<path class="st2" d="M89.8,179.4c2.7,3.7,6,6.5,9.9,8.5c3.9,2,8.2,3.2,13.1,3.6c4.9,0.5,9.8,0.3,14.8-0.5c3.4-0.5,7-1.4,10.8-2.6
		c3.8-1.2,7.2-2.8,10.4-5c3.1-2.1,5.6-4.8,7.4-8c1.8-3.2,2.4-6.9,1.7-11.3c-0.7-4.7-2.8-8.2-6.3-10.7c-3.4-2.4-7.7-4.2-12.9-5.4
		c-5.1-1.2-10.9-2-17.3-2.5c-6.4-0.5-12.8-1.1-19.4-1.9c-6.7-0.6-13.3-1.6-19.8-2.9c-6.5-1.4-12.5-3.5-17.9-6.5
		c-5.4-2.9-10.1-7-13.9-12.1c-3.9-5.1-6.4-11.6-7.7-19.5c-1.4-8.9-0.7-16.9,2-24C47.5,71.6,51.6,65.4,57,60
		c5.4-5.3,11.9-9.6,19.3-13c7.4-3.3,15-5.6,22.7-6.8c9-1.4,17.9-1.8,26.5-1.1c8.6,0.7,16.5,2.8,23.7,6.3c7.2,3.5,13.2,8.5,18.1,14.9
		c4.9,6.4,8.1,14.6,9.7,24.6l-36.8,5.8c-1.1-5.1-2.9-9.2-5.3-12.3c-2.4-3.1-5.3-5.4-8.6-6.8c-3.4-1.5-7.1-2.3-11.2-2.4
		c-4.1-0.2-8.5,0.1-13.1,0.8c-3.1,0.5-6.1,1.3-9,2.4c-3,1.1-5.6,2.7-7.8,4.7c-2.2,2-4,4.4-5.2,7c-1.2,2.7-1.6,5.9-1,9.6
		c0.5,3.4,1.6,6,3.2,7.9c1.6,1.9,4.5,3.4,8.5,4.6c4.1,1.2,9.6,2.1,16.6,2.8c7,0.7,16.1,1.6,27.3,2.6c3.3,0.1,8,0.6,14,1.4
		c6,0.8,12.1,2.6,18.3,5.4c6.2,2.8,11.9,7,17,12.6c5.1,5.6,8.4,13.2,9.9,22.9c1.3,7.9,0.9,15.5-1.1,22.7c-2,7.3-5.6,13.8-10.9,19.7
		c-5.3,5.9-12.2,10.9-20.7,15.1c-8.5,4.2-18.7,7.2-30.4,9c-9.5,1.5-18.9,1.8-28.3,0.9c-9.3-0.9-17.8-3.3-25.5-7.3
		c-7.6-3.9-14.1-9.4-19.4-16.5c-5.3-7.1-8.7-16-10.2-26.7l36.8-5.8C85.3,170.9,87.1,175.7,89.8,179.4z"/>
</g>
<g class="st0">
	<path class="st1" d="M562.2,103.4L525,99.4c1-10.8,3.9-19.9,8.8-27.3c4.9-7.4,11.1-13.3,18.6-17.6c7.5-4.3,15.9-7.2,25.2-8.6
		c9.3-1.4,18.8-1.6,28.4-0.6c11.9,1.3,22.2,3.8,31,7.5c8.8,3.7,15.9,8.4,21.5,14c5.6,5.6,9.6,12,12,19.2c2.4,7.2,3.1,14.8,2.3,22.8
		c-1,9.8-4,17.6-8.8,23.5c-4.8,5.8-10.3,10.3-16.4,13.5c-6.1,3.1-12.2,5.3-18.1,6.4c-6,1.1-10.6,1.8-14,2.1
		c-11.2,1.6-20.3,3-27.3,4.1c-7,1.1-12.5,2.3-16.5,3.7c-4,1.4-6.8,3.1-8.3,5.1c-1.5,2-2.5,4.7-2.8,8.1c-0.4,3.8,0.1,6.9,1.5,9.6
		c1.4,2.6,3.2,4.9,5.6,6.8c2.4,1.9,5.1,3.3,8.1,4.3c3,1,6.1,1.6,9.2,2c4.7,0.5,9.1,0.5,13.2,0.2c4.1-0.4,7.8-1.4,11.1-3
		c3.3-1.6,6.1-4.1,8.3-7.3c2.2-3.2,3.8-7.4,4.7-12.6l37.2,3.9c-1.1,10.1-3.9,18.5-8.5,25.2c-4.6,6.7-10.4,12-17.4,15.9
		c-7,3.9-14.8,6.4-23.4,7.5c-8.6,1.2-17.5,1.2-26.6,0.3c-7.8-0.8-15.6-2.7-23.2-5.7c-7.6-2.9-14.3-7-20-12
		c-5.7-5.1-10.2-11.1-13.3-18.1c-3.1-7-4.2-15-3.3-24c0.8-8,3.1-14.6,6.7-20c3.6-5.3,8.1-9.6,13.4-12.8c5.3-3.2,11.2-5.7,17.6-7.4
		c6.4-1.7,13-3,19.7-4c6.6-1.1,13-2.1,19.4-2.9c6.4-0.8,12.1-1.9,17.2-3.4c5.1-1.4,9.3-3.5,12.6-6.1c3.3-2.6,5.2-6.3,5.7-11
		c0.5-4.4-0.3-8.2-2.3-11.3c-2-3.1-4.6-5.6-7.9-7.6c-3.3-2-6.8-3.5-10.7-4.5c-3.9-1-7.5-1.7-10.9-2c-5.1-0.5-10-0.4-14.9,0.3
		c-4.9,0.7-9.2,2.2-13,4.3c-3.8,2.2-6.9,5.2-9.5,9C564.4,92.6,562.8,97.5,562.2,103.4z"/>
</g>
<g class="st0">
	<path class="st3" d="M562.2,103.4L525,99.4c1-10.8,3.9-19.9,8.8-27.3c4.9-7.4,11.1-13.3,18.6-17.6c7.5-4.3,15.9-7.2,25.2-8.6
		c9.3-1.4,18.8-1.6,28.4-0.6c11.9,1.3,22.2,3.8,31,7.5c8.8,3.7,15.9,8.4,21.5,14c5.6,5.6,9.6,12,12,19.2c2.4,7.2,3.1,14.8,2.3,22.8
		c-1,9.8-4,17.6-8.8,23.5c-4.8,5.8-10.3,10.3-16.4,13.5c-6.1,3.1-12.2,5.3-18.1,6.4c-6,1.1-10.6,1.8-14,2.1
		c-11.2,1.6-20.3,3-27.3,4.1c-7,1.1-12.5,2.3-16.5,3.7c-4,1.4-6.8,3.1-8.3,5.1c-1.5,2-2.5,4.7-2.8,8.1c-0.4,3.8,0.1,6.9,1.5,9.6
		c1.4,2.6,3.2,4.9,5.6,6.8c2.4,1.9,5.1,3.3,8.1,4.3c3,1,6.1,1.6,9.2,2c4.7,0.5,9.1,0.5,13.2,0.2c4.1-0.4,7.8-1.4,11.1-3
		c3.3-1.6,6.1-4.1,8.3-7.3c2.2-3.2,3.8-7.4,4.7-12.6l37.2,3.9c-1.1,10.1-3.9,18.5-8.5,25.2c-4.6,6.7-10.4,12-17.4,15.9
		c-7,3.9-14.8,6.4-23.4,7.5c-8.6,1.2-17.5,1.2-26.6,0.3c-7.8-0.8-15.6-2.7-23.2-5.7c-7.6-2.9-14.3-7-20-12
		c-5.7-5.1-10.2-11.1-13.3-18.1c-3.1-7-4.2-15-3.3-24c0.8-8,3.1-14.6,6.7-20c3.6-5.3,8.1-9.6,13.4-12.8c5.3-3.2,11.2-5.7,17.6-7.4
		c6.4-1.7,13-3,19.7-4c6.6-1.1,13-2.1,19.4-2.9c6.4-0.8,12.1-1.9,17.2-3.4c5.1-1.4,9.3-3.5,12.6-6.1c3.3-2.6,5.2-6.3,5.7-11
		c0.5-4.4-0.3-8.2-2.3-11.3c-2-3.1-4.6-5.6-7.9-7.6c-3.3-2-6.8-3.5-10.7-4.5c-3.9-1-7.5-1.7-10.9-2c-5.1-0.5-10-0.4-14.9,0.3
		c-4.9,0.7-9.2,2.2-13,4.3c-3.8,2.2-6.9,5.2-9.5,9C564.4,92.6,562.8,97.5,562.2,103.4z"/>
</g>
<g id="Group_4" transform="translate(-622.058 -99.613)">
	<g id="Rectangle_6" transform="translate(776 337)">
		<g>
			<path class="st4" d="M10.7-37.6h11c1.7,0,3,1.3,3,3v10c0,1.7-1.3,3-3,3h-11c-1.7,0-3-1.3-3-3v-10C7.7-36.3,9.1-37.6,10.7-37.6z"
				/>
		</g>
		<g>
			<path class="st5" d="M21.7-21.6h-11c-1.7,0-3-1.3-3-3v-10c0-1.7,1.3-3,3-3h11c1.7,0,3,1.3,3,3v10C24.7-22.9,23.4-21.6,21.7-21.6z
				 M10.7-36.6c-1.1,0-2,0.9-2,2v10c0,1.1,0.9,2,2,2h11c1.1,0,2-0.9,2-2v-10c0-1.1-0.9-2-2-2H10.7z"/>
		</g>
	</g>
	<g id="Group_2" transform="translate(789.15 334.601)">
		<g id="Path_1">
			<path class="st6" d="M13.5-37.2h314.8l61.7,7.9l-61.7,10.1H13.5V-37.2z"/>
			<path class="st5" d="M13.5-18.8H13v-18.9h315.3l61.8,7.9l0,1l-61.7,10.1L13.5-18.8z M14-19.8h314.3l58.3-9.5l-58.3-7.4L14-36.7
				V-19.8z"/>
		</g>
		<g id="Line_1">
			<rect x="7.7" y="-28.4" class="st5" width="322" height="1.3"/>
		</g>
		<g id="Path_2">
			<polygon class="st5" points="325.8,-15.5 325.1,-16.1 329.4,-21.3 324.5,-24.4 329.1,-27.6 324.5,-29.7 329.2,-33.4 325.5,-35.9 
				325.1,-36.2 325.8,-37 326.3,-36.5 331,-33.5 326.4,-29.9 331.1,-27.8 326.3,-24.4 330.8,-21.5 			"/>
		</g>
		<g id="Path_3">
			<path class="st7" d="M369-20.7"/>
		</g>
		<g id="Line_2">
			<rect x="13.1" y="-34.4" class="st5" width="316.7" height="1.3"/>
		</g>
		<g id="Line_3">
			<rect x="12.8" y="-22.3" class="st5" width="317" height="1.3"/>
		</g>
		<g id="Path_4">
			<path class="st5" d="M367.2-25.5l0.5-6.8l21.6,3L367.2-25.5z"/>
		</g>
		<g id="Path_5">
			<path class="st8" d="M369-26.1l0.4-5.7l18.2,2.5L369-26.1z"/>
		</g>
	</g>
	<g id="Rectangle_5" transform="translate(786 335)">
		<g>
			<rect x="7.7" y="-37.6" class="st5" width="11" height="18"/>
		</g>
		<g>
			<path class="st8" d="M18.7-19.6h-11v-18h11V-19.6z M8.7-20.6h9v-16h-9V-20.6z"/>
		</g>
	</g>
</g>
</svg>
